<svg width="0" height="0" class="hidden">
    <symbol xmlns="http://www.w3.org/2000/svg" viewBox="0 0 32 32" id="gmail">
        <path fill="#ea4435" d="M16.58,19.1068l-12.69-8.0757A3,3,0,0,1,7.1109,5.97l9.31,5.9243L24.78,6.0428A3,3,0,0,1,28.22,10.9579Z"></path>
        <path fill="#00ac47" d="M25.5,5.5h4a0,0,0,0,1,0,0v18a3,3,0,0,1-3,3h0a3,3,0,0,1-3-3V7.5a2,2,0,0,1,2-2Z" transform="rotate(180 26.5 16)"></path>
        <path fill="#ffba00" d="M29.4562,8.0656c-.0088-.06-.0081-.1213-.0206-.1812-.0192-.0918-.0549-.1766-.0823-.2652a2.9312,2.9312,0,0,0-.0958-.2993c-.02-.0475-.0508-.0892-.0735-.1354A2.9838,2.9838,0,0,0,28.9686,6.8c-.04-.0581-.09-.1076-.1342-.1626a3.0282,3.0282,0,0,0-.2455-.2849c-.0665-.0647-.1423-.1188-.2146-.1771a3.02,3.02,0,0,0-.24-.1857c-.0793-.0518-.1661-.0917-.25-.1359-.0884-.0461-.175-.0963-.267-.1331-.0889-.0358-.1837-.0586-.2766-.0859s-.1853-.06-.2807-.0777a3.0543,3.0543,0,0,0-.357-.036c-.0759-.0053-.1511-.0186-.2273-.018a2.9778,2.9778,0,0,0-.4219.0425c-.0563.0084-.113.0077-.1689.0193a33.211,33.211,0,0,0-.5645.178c-.0515.022-.0966.0547-.1465.0795A2.901,2.901,0,0,0,23.5,8.5v5.762l4.72-3.3043a2.8878,2.8878,0,0,0,1.2359-2.8923Z"></path>
        <path fill="#4285f4" d="M5.5,5.5h0a3,3,0,0,1,3,3v18a0,0,0,0,1,0,0h-4a2,2,0,0,1-2-2V8.5a3,3,0,0,1,3-3Z"></path>
        <path fill="#c52528" d="M2.5439,8.0656c.0088-.06.0081-.1213.0206-.1812.0192-.0918.0549-.1766.0823-.2652A2.9312,2.9312,0,0,1,2.7426,7.32c.02-.0475.0508-.0892.0736-.1354A2.9719,2.9719,0,0,1,3.0316,6.8c.04-.0581.09-.1076.1342-.1626a3.0272,3.0272,0,0,1,.2454-.2849c.0665-.0647.1423-.1188.2147-.1771a3.0005,3.0005,0,0,1,.24-.1857c.0793-.0518.1661-.0917.25-.1359A2.9747,2.9747,0,0,1,4.3829,5.72c.089-.0358.1838-.0586.2766-.0859s.1853-.06.2807-.0777a3.0565,3.0565,0,0,1,.357-.036c.076-.0053.1511-.0186.2273-.018a2.9763,2.9763,0,0,1,.4219.0425c.0563.0084.113.0077.169.0193a2.9056,2.9056,0,0,1,.286.0888,2.9157,2.9157,0,0,1,.2785.0892c.0514.022.0965.0547.1465.0795a2.9745,2.9745,0,0,1,.3742.21A2.9943,2.9943,0,0,1,8.5,8.5v5.762L3.78,10.9579A2.8891,2.8891,0,0,1,2.5439,8.0656Z"></path>
    </symbol>
    <symbol xmlns="http://www.w3.org/2000/svg" fill="#fff" aria-label="LinkedIn" viewBox="0 0 512 512" id="linkedin">
        <rect width="512" height="512" fill="#0077b5" rx="15%"></rect>
        <circle cx="142" cy="138" r="37"></circle>
        <path stroke="#fff" stroke-width="66" d="M244 194v198M142 194v198"></path>
        <path d="M276 282c0-20 13-40 36-40 24 0 33 18 33 45v105h66V279c0-61-32-89-76-89-34 0-51 19-59 32"></path>
    </symbol>
    <symbol xmlns="http://www.w3.org/2000/svg" aria-label="Telegram" viewBox="0 0 512 512" id="telegram">
        <rect width="512" height="512" fill="#37aee2" rx="15%"></rect>
        <path fill="#c8daea" d="M199 404c-11 0-10-4-13-14l-32-105 245-144"></path>
        <path fill="#a9c9dd" d="M199 404c7 0 11-4 16-8l45-43-56-34"></path>
        <path fill="#f6fbfe" d="M204 319l135 99c14 9 26 4 30-14l55-258c5-22-9-32-24-25L79 245c-21 8-21 21-4 26l83 26 190-121c9-5 17-3 11 4"></path>
    </symbol>
    <symbol xmlns="http://www.w3.org/2000/svg" xmlns:xlink="http://www.w3.org/1999/xlink" viewBox="0 0 1024 1024" id="whatsapp">
        <defs>
            <path id="a" d="M1023.941 765.153c0 5.606-.171 17.766-.508 27.159-.824 22.982-2.646 52.639-5.401 66.151-4.141 20.306-10.392 39.472-18.542 55.425-9.643 18.871-21.943 35.775-36.559 50.364-14.584 14.56-31.472 26.812-50.315 36.416-16.036 8.172-35.322 14.426-55.744 18.549-13.378 2.701-42.812 4.488-65.648 5.3-9.402.336-21.564.505-27.15.505l-504.226-.081c-5.607 0-17.765-.172-27.158-.509-22.983-.824-52.639-2.646-66.152-5.4-20.306-4.142-39.473-10.392-55.425-18.542-18.872-9.644-35.775-21.944-50.364-36.56-14.56-14.584-26.812-31.471-36.415-50.314-8.174-16.037-14.428-35.323-18.551-55.744-2.7-13.378-4.487-42.812-5.3-65.649-.334-9.401-.503-21.563-.503-27.148l.08-504.228c0-5.607.171-17.766.508-27.159.825-22.983 2.646-52.639 5.401-66.151 4.141-20.306 10.391-39.473 18.542-55.426C34.154 93.24 46.455 76.336 61.07 61.747c14.584-14.559 31.472-26.812 50.315-36.416 16.037-8.172 35.324-14.426 55.745-18.549 13.377-2.701 42.812-4.488 65.648-5.3 9.402-.335 21.565-.504 27.149-.504l504.227.081c5.608 0 17.766.171 27.159.508 22.983.825 52.638 2.646 66.152 5.401 20.305 4.141 39.472 10.391 55.425 18.542 18.871 9.643 35.774 21.944 50.363 36.559 14.559 14.584 26.812 31.471 36.415 50.315 8.174 16.037 14.428 35.323 18.551 55.744 2.7 13.378 4.486 42.812 5.3 65.649.335 9.402.504 21.564.504 27.15l-.082 504.226z"></path>
        </defs>

        <use fill="#45d354" overflow="visible" xlink:href="#a"></use>
        <path fill="#FFF" d="M783.302 243.246c-69.329-69.387-161.529-107.619-259.763-107.658-202.402 0-367.133 164.668-367.214 367.072-.026 64.699 16.883 127.854 49.017 183.522l-52.096 190.229 194.665-51.047c53.636 29.244 114.022 44.656 175.482 44.682h.151c202.382 0 367.128-164.688 367.21-367.094.039-98.087-38.121-190.319-107.452-259.706zM523.544 808.047h-.125c-54.767-.021-108.483-14.729-155.344-42.529l-11.146-6.612-115.517 30.293 30.834-112.592-7.259-11.544c-30.552-48.579-46.688-104.729-46.664-162.379.066-168.229 136.985-305.096 305.339-305.096 81.521.031 158.154 31.811 215.779 89.482s89.342 134.332 89.312 215.859c-.066 168.243-136.984 305.118-305.209 305.118zm167.415-228.515c-9.177-4.591-54.286-26.782-62.697-29.843-8.41-3.062-14.526-4.592-20.645 4.592-6.115 9.182-23.699 29.843-29.053 35.964-5.352 6.122-10.704 6.888-19.879 2.296-9.176-4.591-38.74-14.277-73.786-45.526-27.275-24.319-45.691-54.359-51.043-63.543-5.352-9.183-.569-14.146 4.024-18.72 4.127-4.109 9.175-10.713 13.763-16.069 4.587-5.355 6.117-9.183 9.175-15.304 3.059-6.122 1.529-11.479-.765-16.07-2.293-4.591-20.644-49.739-28.29-68.104-7.447-17.886-15.013-15.466-20.645-15.747-5.346-.266-11.469-.322-17.585-.322s-16.057 2.295-24.467 11.478-32.113 31.374-32.113 76.521c0 45.147 32.877 88.764 37.465 94.885 4.588 6.122 64.699 98.771 156.741 138.502 21.892 9.45 38.982 15.094 52.308 19.322 21.98 6.979 41.982 5.995 57.793 3.634 17.628-2.633 54.284-22.189 61.932-43.615 7.646-21.427 7.646-39.791 5.352-43.617-2.294-3.826-8.41-6.122-17.585-10.714z"></path>
        <symbol xmlns="http://www.w3.org/2000/svg" viewBox="0 0 32 32" id="telephone">
            <path fill="#ff5345" d="M24 14.1v-3.6c0-.6-.4-1-1-1H12c-.6 0-1 .4-1 1v3.6c0 .9-.6 1.6-1.4 1.9l-.5.2c-.7.2-1.2.8-1.3 1.5l-1.3 6.5c-.2 1.2.7 2.4 2 2.4h18.1c1.3 0 2.2-1.2 2-2.4l-1.3-6.5c-.1-.7-.6-1.3-1.3-1.5l-.6-.2c-.8-.3-1.4-1.1-1.4-1.9z"></path>
            <circle cx="17.5" cy="17" r="2.5" fill="#db3a3a"></circle>
            <path fill="#fff" d="M17.5 12.5c-2.5 0-4.5 2-4.5 4.5s2 4.5 4.5 4.5 4.5-2 4.5-4.5-2-4.5-4.5-4.5zm0 7c-1.4 0-2.5-1.1-2.5-2.5s1.1-2.5 2.5-2.5S20 15.6 20 17s-1.1 2.5-2.5 2.5z"></path>
            <path fill="#ea3f3b" d="M6.4 24.5c0 1.1.9 2 2 2h18.1c1.1 0 2-.9 2-2H6.4z"></path>
            <path fill="#ff5345" d="M27.1 7.3c-2-1.2-4.3-1.8-6.6-1.8h-5.9c-2.3 0-4.6.6-6.6 1.8-1.3.8-2 2.1-2 3.5v2.7c0 .6.4 1 1 1h3.2c.3 0 .6-.2.8-.4v-3.6c0-.6.4-1 1-1h11c.6 0 1 .4 1 1v3.6c.2.3.5.4.8.4H28c.6 0 1-.4 1-1v-2.7c0-1.4-.7-2.7-1.9-3.5z"></path>
            <path fill="#ea3f3b" d="M6 11.5v2c0 .6.4 1 1 1h3.2c.3 0 .6-.2.8-.4v-2.6H6zm18 0v2.6c.2.3.5.4.8.4H28c.6 0 1-.4 1-1v-2h-5z"></path>
            <path fill="#40455a" d="M28.5 25h-22c-.3 0-.5-.2-.5-.5s.2-.5.5-.5h22c.3 0 .5.2.5.5s-.2.5-.5.5zm-6-7.5h-2.1c-.3 0-.5-.2-.5-.5s.2-.5.5-.5h2.1c.3 0 .5.2.5.5s-.2.5-.5.5zm2-5.5c-.3 0-.5-.2-.5-.5s.2-.5.5-.5h4c.3 0 .5.2.5.5s-.2.5-.5.5h-4zm-14 0h-4c-.3 0-.5-.2-.5-.5s.2-.5.5-.5h4c.3 0 .5.2.5.5s-.2.5-.5.5z"></path>
            <path fill="#40455a" d="M26.6 27H8.4c-.8 0-1.5-.3-1.9-.9-.5-.6-.7-1.4-.5-2.1l1.3-6.5c.2-.9.8-1.6 1.7-1.9l.5-.2c.6-.2 1-.8 1-1.4v-3.6c0-.7.7-1.4 1.5-1.4h11c.8 0 1.5.7 1.5 1.5v3.6c0 .6.4 1.2 1 1.4l.5.2c.8.3 1.5 1 1.7 1.9L29 24c.1.7 0 1.5-.5 2.1-.5.6-1.2.9-1.9.9zM12 10c-.3 0-.5.2-.5.5v3.6c0 1.1-.7 2-1.7 2.4l-.5.2c-.5.2-.9.6-1 1.1L7 24.2c-.1.4 0 .9.3 1.2s.7.6 1.1.6h18.1c.5 0 .9-.2 1.2-.5s.4-.8.3-1.2l-1.3-6.5c-.1-.5-.5-1-1-1.1l-.5-.2c-1-.3-1.7-1.3-1.7-2.4v-3.6c0-.3-.2-.5-.5-.5H12z"></path>
            <path fill="#40455a" d="M17.5 22c-2.8 0-5-2.2-5-5s2.2-5 5-5 5 2.2 5 5-2.2 5-5 5zm0-9c-2.2 0-4 1.8-4 4s1.8 4 4 4 4-1.8 4-4-1.8-4-4-4z"></path>
            <path fill="#40455a" d="M17.5 20c-1.7 0-3-1.3-3-3s1.3-3 3-3 3 1.3 3 3-1.3 3-3 3zm0-5c-1.1 0-2 .9-2 2s.9 2 2 2 2-.9 2-2-.9-2-2-2z"></path>
            <path fill="#40455a" d="M28 15h-3.2c-.5 0-1-.2-1.2-.7-.1-.1-.1-.2-.1-.3v-3.6c0-.3-.2-.5-.5-.5H12c-.3 0-.5.2-.5.5V14c0 .1 0 .2-.1.3-.3.4-.7.7-1.2.7H7c-.8 0-1.5-.7-1.5-1.5v-2.7c0-1.6.8-3.1 2.2-3.9C9.8 5.7 12.1 5 14.6 5h5.9c2.4 0 4.8.7 6.9 1.9 1.3.8 2.2 2.3 2.2 3.9v2.7c-.1.8-.8 1.5-1.6 1.5zm-3.5-1.1c.1.1.2.1.3.1H28c.3 0 .5-.2.5-.5v-2.7c0-1.2-.7-2.4-1.7-3C24.9 6.6 22.7 6 20.4 6h-5.9c-2.2 0-4.4.6-6.4 1.8-1 .6-1.7 1.8-1.7 3v2.7c.1.3.3.5.6.5h3.2c.1 0 .2 0 .3-.1v-3.4c0-.8.7-1.5 1.5-1.5h11c.8 0 1.5.7 1.5 1.5v3.4zM4 22c-.8 0-1.5-.7-1.5-1.5S3.2 19 4 19c.3 0 .5.2.5.5s-.2.5-.5.5-.5.2-.5.5.2.5.5.5.5.2.5.5-.2.5-.5.5z"></path>
            <path fill="#40455a" d="M4 24c-.8 0-1.5-.7-1.5-1.5S3.2 21 4 21c.3 0 .5.2.5.5s-.2.5-.5.5-.5.2-.5.5.2.5.5.5.5.2.5.5-.2.5-.5.5zm0-4c-.8 0-1.5-.7-1.5-1.5S3.2 17 4 17c.3 0 .5.2.5.5s-.2.5-.5.5-.5.2-.5.5.2.5.5.5.5.2.5.5-.2.5-.5.5z"></path>
            <path fill="#40455a" d="M4 18c-.8 0-1.5-.7-1.5-1.5S3.2 15 4 15c.3 0 .5.2.5.5s-.2.5-.5.5-.5.2-.5.5.2.5.5.5.5.2.5.5-.2.5-.5.5z"></path>
            <path fill="#40455a" d="M4 16c-.3 0-.5-.2-.5-.5v-1c0-.8.7-1.5 1.5-1.5h1c.3 0 .5.2.5.5s-.2.5-.5.5H5c-.3 0-.5.2-.5.5v1c0 .3-.2.5-.5.5z"></path>
        </symbol>
    </symbol>
</svg>