<svg width="0" height="0" class="hidden">
    <symbol fill="none" xmlns="http://www.w3.org/2000/svg" viewBox="0 0 70 100" id="figma">
        <g clip-path="url(#clip0_1_767)">
            <path d="M17.3753 100C26.9632 100 34.7447 92.5335 34.7447 83.3335V66.6668H17.3753C7.78742 66.6668 0.00592041 74.1335 0.00592041 83.3335C0.00592041 92.5335 7.78742 100 17.3753 100Z" fill="#0ACF83"></path>
            <path d="M0.00592041 49.9999C0.00592041 40.7999 7.78742 33.3332 17.3753 33.3332H34.7447V66.6665H17.3753C7.78742 66.6665 0.00592041 59.1999 0.00592041 49.9999Z" fill="#A259FF"></path>
            <path d="M0.00390625 16.6667C0.00390625 7.46667 7.7854 7.62939e-06 17.3733 7.62939e-06H34.7427V33.3333H17.3733C7.7854 33.3333 0.00390625 25.8667 0.00390625 16.6667Z" fill="#F24E1E"></path>
            <path d="M34.7458 7.62939e-06H52.1152C61.7031 7.62939e-06 69.4846 7.46667 69.4846 16.6667C69.4846 25.8667 61.7031 33.3333 52.1152 33.3333H34.7458V7.62939e-06Z" fill="#FF7262"></path>
            <path d="M69.4846 49.9999C69.4846 59.1999 61.7031 66.6665 52.1152 66.6665C42.5273 66.6665 34.7458 59.1999 34.7458 49.9999C34.7458 40.7999 42.5273 33.3332 52.1152 33.3332C61.7031 33.3332 69.4846 40.7999 69.4846 49.9999Z" fill="#1ABCFE"></path>
        </g>
        <defs>
            <clipPath id="clip0_1_767">
                <rect width="69.4915" height="100" fill="white"></rect>
            </clipPath>
        </defs>
    </symbol>
    <symbol xmlns="http://www.w3.org/2000/svg" viewBox="0 0 128 128" id="git">
        <path fill="#F34F29" d="M124.737 58.378l-55.116-55.114c-3.172-3.174-8.32-3.174-11.497 0l-11.444 11.446 14.518 14.518c3.375-1.139 7.243-.375 9.932 2.314 2.703 2.706 3.461 6.607 2.294 9.993l13.992 13.993c3.385-1.167 7.292-.413 9.994 2.295 3.78 3.777 3.78 9.9 0 13.679-3.78 3.78-9.901 3.78-13.683 0-2.842-2.844-3.545-7.019-2.105-10.521l-13.048-13.048-.002 34.341c.922.455 1.791 1.063 2.559 1.828 3.778 3.777 3.778 9.898 0 13.683-3.779 3.777-9.904 3.777-13.679 0-3.778-3.784-3.778-9.905 0-13.683.934-.933 2.014-1.638 3.167-2.11v-34.659c-1.153-.472-2.231-1.172-3.167-2.111-2.862-2.86-3.551-7.06-2.083-10.576l-14.313-14.313-37.792 37.79c-3.175 3.177-3.175 8.325 0 11.5l55.117 55.114c3.174 3.174 8.32 3.174 11.499 0l54.858-54.858c3.174-3.176 3.174-8.327-.001-11.501z"></path>
    </symbol>
    <symbol xmlns="http://www.w3.org/2000/svg" viewBox="0 0 5105.4 5105.4" id="gulp(1)">
        <path fill="#cf4547" d="M0 0h5105.4v5105.4H0z"></path>
        <path fill="#fff" stroke="#fff" stroke-miterlimit="10" stroke-width="13.386" d="M1766.5 2586.7c-2.4 3.5-6.6 14.4-12.8 32.9-6.2 18.5-13.7 41.6-22.5 69.4-8.8 27.8-18.4 59-28.6 93.4-10.3 34.4-20.9 69.6-31.7 105.4-10.9 35.9-21.3 71-31.3 105.5-10 34.4-19 65.6-26.9 93.4-7.9 27.8-14.5 51.1-19.8 70-5.3 18.8-8.5 29.9-9.7 33.4-2.9 11.1-7.6 23.5-14.1 37.1-6.5 13.6-14.1 26.4-22.9 38.6-8.8 12.2-18.5 22.3-29.1 30.3-10.6 8-21.5 12-32.6 12-18.8 0-32.5-6.3-41-18.8s-12.8-35.5-12.8-68.9v-14.6c0-4.9.3-10.1.9-15.6.6-11.1 5-32 13.2-62.7 8.2-30.6 18.1-65.2 29.5-103.9s23.8-78.6 37-120.1c13.2-41.4 25.1-78.5 35.7-111.2-31.2 34.8-64.9 69.4-101.4 103.9-36.4 34.5-73.8 65.4-111.9 92.9-38.2 27.5-76.7 50-115.5 67.3-38.8 17.4-76.1 26.1-111.9 26.1-41.1 0-76.5-9.1-106.2-27.1-29.7-18.1-54.2-41.8-73.6-71s-33.8-62.3-43.2-99.2c-9.4-36.9-14.1-73.8-14.1-110.7v-13.6c0-4.2.3-8.3.9-12.5 3.5-66.8 13.1-135.4 28.6-205.7 15.6-70.3 36-140.3 61.3-209.8 25.3-69.6 54.5-137.6 87.7-204.1s69.3-129.3 108.4-188.4c39.1-59.1 80.6-113.6 124.7-163.4 44.1-49.8 89.3-92.6 135.7-128.4 46.4-35.8 93.3-63.8 140.6-84 47.3-20.2 94.2-30.3 140.6-30.3 53.5 0 105.2 14.6 155.1 43.8 49.9 29.2 96.6 76.6 140.1 142 10 14.6 16.3 29.4 18.9 44.4 2.6 15 4 29.1 4 42.3 0 31.3-7.5 56-22.5 74.1-15 18.1-32.8 27.1-53.3 27.1-18.8 0-36.3-9.9-52.4-29.8-16.2-19.8-34.2-48.2-54.2-85.1-18.8-33.4-39.5-57.6-62.1-72.6-22.6-15-47.2-22.4-73.6-22.4-41.1 0-85.1 17.1-131.8 51.2-46.7 34.1-93 79.2-138.8 135.2-45.8 56-89.8 120-131.8 192.1-42 72-79.2 145.8-111.5 221.3s-58 150-77.1 223.4c-19.1 73.4-28.6 139.4-28.6 197.9 0 19.5 1.3 39.5 4 60s7.6 39.2 15 55.9c7.3 16.7 17.3 30.5 30 41.2 12.6 10.8 28.6 16.2 48 16.2 21.7 0 46.4-7.3 74-21.9 27.6-14.6 56.3-33.7 85.9-57.4 29.7-23.7 59.5-50.5 89.5-80.4 30-29.9 57.9-60.2 83.7-90.8 25.8-30.6 48.8-60 68.7-88.2 20-28.2 35-52.7 44.9-73.6l82-245.3c10-26.4 23.1-45.2 39.2-56.4 16.2-11.1 32.8-16.7 49.8-16.7 8.2 0 16.4 1.4 24.7 4.2 8.2 2.8 15.6 7.1 22 13.1 6.5 5.9 11.6 13.6 15.4 23 3.8 9.4 5.7 20.4 5.7 32.9 0 33.4-2.9 64.7-8.8 94-5.9 29.3-13.4 57.8-22.5 85.6-9.1 27.8-19.2 55.9-30.4 84-11 28-21.9 57.4-32.4 88.1zM2877.9 2791.3c-25.9 34.8-56 68.7-90.3 101.8-34.4 33.1-69.8 62.5-106.2 88.2-36.4 25.7-72.3 46.4-107.5 62.1-35.3 15.7-67 23.5-95.2 23.5s-51.1-9.4-68.8-28.2c-17.6-18.8-26.4-50.8-26.4-96.1 0-32 4.7-69.3 14.1-111.7-15.3 27.2-34.4 54.7-57.3 82.5-22.9 27.8-49.1 53.2-78.5 76.2s-62.3 41.6-98.7 55.8c-36.4 14.3-76.1 21.4-119 21.4-19.4 0-38.1-2.4-56-7.3s-33.6-13.2-47.1-25-24.4-27.6-32.6-47.5c-8.2-19.8-12.3-44.7-12.3-74.6 0-.7 1.2-11.3 3.5-31.8s9.8-52.9 22.5-97.1c12.6-44.2 32.2-101.4 58.6-171.7 26.5-70.3 63.8-155.5 111.9-255.8 12.3-26.4 26.6-45.4 42.7-56.9 16.2-11.5 33.6-17.2 52.4-17.2 8.2 0 16.7 1.2 25.6 3.6 8.8 2.5 17 6.3 24.7 11.5 7.6 5.2 13.8 11.8 18.5 19.8 4.7 8 7.1 17.2 7.1 27.7 0 7-.9 13.6-2.7 19.8-2.9 11.9-9.2 27.3-19 46.5-9.7 19.2-21 41.1-33.9 65.8-12.9 24.7-26.6 51.3-41 79.9-14.4 28.5-27.8 58.1-40.1 88.7s-22.9 61.8-31.7 93.4c-8.8 31.7-13.8 62.5-15 92.4 0 12.5 2.9 24 8.8 34.5 5.9 10.4 15.6 15.7 29.1 15.7 38.2 0 74.6-12.5 109.3-37.6 34.7-25 66.7-56.2 96.1-93.4 29.4-37.2 56-77.2 79.8-120.1 23.8-42.8 43.7-81.9 59.5-117.4 11.2-23.7 21-49.1 29.5-76.2s17.8-52.2 27.8-75.2 21.4-42.1 34.4-57.4c12.9-15.3 29.1-23 48.5-23 21.1 0 37.9 8 50.2 24 12.3 16 18.5 35.2 18.5 57.4 0 12.5-3.9 29.8-11.9 51.7-8 21.9-17.9 47-30 75.2-12 28.2-25.1 58.3-39.2 90.3-14.1 32-27.2 64.6-39.2 97.6-12.1 33.1-22 65.4-30 97.1-7.9 31.7-11.9 61.1-11.9 88.2 0 25.1 12.9 37.6 38.8 37.6 18.2 0 40.8-6.3 67.9-18.8 27.1-12.5 55.4-30.1 85.1-52.7 29.7-22.6 59.3-49.2 89-79.9 29.7-30.6 56-63.7 78.9-99.2l8.7 141.9z"></path>
        <path fill="#fff" stroke="#fff" stroke-miterlimit="10" stroke-width="13.386" d="M2905.3 2739.1c-6.5 16-12.8 34.6-19 55.9-6.2 21.2-9.2 40.2-9.2 56.9 0 10.4 1.8 18.8 5.3 25.1 3.5 6.3 10.3 9.4 20.3 9.4 12.3 0 27.7-4.3 46.3-13.1 18.5-8.7 38.5-20.2 59.9-34.5 21.5-14.2 43.8-30.6 67-49.1 23.2-18.4 46.3-37.6 69.2-57.4 22.9-19.9 44.8-39.7 65.7-59.5 20.9-19.9 39.5-38.1 56-54.8 4.7-4.9 10.3-8.4 16.7-10.4 6.4-2.1 12-3.1 16.7-3.1 11.7 0 21.5 4.9 29.1 14.6 7.6 9.7 11.4 22.6 11.4 38.6 0 14.6-4.1 31-12.3 49.1-8.2 18.1-22.6 35.9-43.2 53.2-37.6 41.1-75.5 80-113.7 116.9-38.2 36.9-76.2 69.4-114.1 97.6-37.9 28.2-75.5 50.6-112.8 67.4-37.3 16.7-73.6 25-108.9 25-24.1 0-44.2-3.8-60.4-11.5-16.2-7.7-29.1-18.1-38.8-31.3-9.7-13.2-16.6-28.9-20.7-47-4.1-18.1-6.2-37.2-6.2-57.4 0-34.1 4.3-69.1 12.8-104.9 8.5-35.8 18.6-68.7 30.4-98.6 20.6-54.3 41.4-108.2 62.6-161.8 21.1-53.6 40.5-102.7 58.2-147.2l267-673.4c10.6-27.1 24.8-46.3 42.8-57.4 17.9-11.1 36-16.7 54.2-16.7 18.2 0 34.8 5.9 49.8 17.7 15 11.8 22.5 31 22.5 57.4 0 12.5-2.5 25.8-7.5 39.7-5 13.9-11.3 28.9-18.9 44.9-14.7 32.7-32.2 72.7-52.4 120-20.3 47.3-42 98.8-65.2 154.5-23.2 55.7-47 113.6-71.4 173.8-24.4 60.2-48.2 118.8-71.4 175.9-23.2 57.1-44.9 111.2-65.2 162.3-20.5 51.2-38 95.6-52.6 133.2z"></path>
        <path fill="#fff" stroke="#fff" stroke-miterlimit="10" stroke-width="13.386" d="M4154.2 2550.1c8.2-5.6 15.9-10.1 22.9-13.6 7-3.5 13.8-5.2 20.3-5.2 12.9 0 22.6 5.8 29.1 17.2 6.5 11.5 9.7 25.6 9.7 42.3 0 18.1-3.9 36.5-11.9 55.3-7.9 18.8-19.8 34.4-35.7 47-62.9 55.7-119 106.5-168.3 152.4-49.4 45.9-95.9 85.4-139.7 118.5-43.8 33.1-86.5 58.6-128.2 76.7-41.7 18.1-86.4 27.1-134 27.1-44.7 0-79.2-9.8-103.6-29.2-24.4-19.5-36.6-46.3-36.6-80.4v-7.8c0-2.4.3-5.4.9-8.9 2.3-20.9 11.5-44.9 27.3-72 15.9-27.1 35-55.3 57.3-84.6s46.1-58.8 71.4-88.7c25.3-29.9 48.6-58.3 70.1-85.1 21.4-26.8 39.2-51.3 53.3-73.6 14.1-22.3 21.2-40.3 21.2-54.3 0-8.4-3-15-8.8-19.8-5.9-4.9-15.6-7.3-29.1-7.3-23.5 0-47.7 6.1-72.7 18.3-25 12.2-49.7 28.5-74 49-24.4 20.5-48.2 44-71.4 70.5-23.2 26.5-44.9 53.9-65.2 82.5-20.3 28.6-38.8 57.2-55.5 86.1-16.7 28.9-31 55.5-42.7 79.9-3.5 7.7-8.5 18.5-15 32.4-6.5 13.9-13.5 29.6-21.1 47-7.7 17.4-15.7 35.3-24.3 53.7-8.5 18.5-16.3 35.9-23.3 52.2-7.1 16.4-13.4 30.9-19 43.9-5.6 12.9-9.6 21.7-11.9 26.6-3 6.3-7.8 18.1-14.6 35.5s-14.5 37.7-23.4 61.1c-8.8 23.3-18.1 47.8-27.7 73.6-9.7 25.8-18.8 50.1-27.3 73.1-8.5 23-16 43.1-22.5 60.5s-10.6 29.2-12.4 35.5c-5.9 18.1-12.8 35.1-20.7 51.2-7.9 16-17 30.1-27.3 42.3-10.3 12.2-22 21.9-35.3 29.2-13.2 7.3-28.1 10.9-44.5 10.9-21.2 0-38.6-5.1-52.5-15.1-13.8-10.1-20.7-29.4-20.7-57.9 0-13.9 1.8-28.2 5.3-42.8 3.5-14.6 8-29.1 13.2-43.3 5.3-14.3 10.7-28.2 16.3-41.7 5.6-13.6 10.7-26.6 15.4-39.2 31.7-69.6 64.1-139.4 97-209.3 32.9-70 64.5-139.2 94.7-207.8 30.3-68.5 58.3-135.9 84.2-202 25.8-66.1 47.3-129.5 64.3-190 4.7-12.5 11.2-30.3 19.4-53.3 8.2-23 17.6-45.6 28.2-67.9 10.6-22.3 22.5-41.6 35.7-57.9 13.2-16.4 27.5-24.5 42.7-24.5 23.5 0 40.5 5.4 51.1 16.2 10.6 10.8 15.9 26.6 15.9 47.5 0 4.2-.6 10.8-1.8 19.8-1.2 9-2.7 18.6-4.4 28.7-1.8 10.1-3.7 19.7-5.7 28.7-2.1 9-4 15.6-5.7 19.8 21.7-23.7 45.2-47.1 70.5-70.5 25.3-23.3 51.4-44.4 78.5-63.2 27-18.8 54.6-34.1 82.8-46 28.2-11.8 56.4-17.7 84.6-17.7 19.4 0 38.6 2.8 57.7 8.4 19.1 5.6 36.1 13.7 51.1 24.5s27.2 24.4 36.6 40.7c9.4 16.4 14.1 35.3 14.1 56.9 0 28.6-7.2 59-21.6 91.4-14.4 32.4-32.5 64.9-54.2 97.6-21.8 32.7-45.3 64.6-70.5 95.5-25.3 31-48.9 59.2-71 84.6-22 25.4-40.5 47-55.5 64.7-15 17.8-22.8 29.8-23.4 36 0 8.4 2.7 15.1 7.9 20.4s14.1 7.8 26.5 7.8c10 0 24.7-5.6 44.1-16.7 19.4-11.1 46.6-30.4 81.5-57.9s79.3-64.4 133.1-110.7c53.8-46.2 120.1-104.5 198.8-174.8z"></path>
    </symbol>
    <symbol fill="none" xmlns="http://www.w3.org/2000/svg" viewBox="0 0 85 100" id="html">
        <path d="M0.015625 0L7.68491 90L42.1215 100L76.546 90.0062L84.2273 0H0.015625Z" fill="#FF5722"></path>
        <path d="M67.5955 29.4316H42.1215H27.2341L28.1965 40.7379H42.1215H66.6331L63.7399 74.6379L42.1215 80.9066L42.1035 80.9129L20.4972 74.6379L18.9874 56.9066H29.574L30.362 66.1066L42.1095 69.4254L42.1215 69.4191L53.8811 66.1004L55.1082 51.7816H42.1215H18.5543L15.7031 18.4004H42.1215H68.5339L67.5955 29.4316Z" fill="#FAFAFA"></path>
    </symbol>
    <symbol xmlns="http://www.w3.org/2000/svg" enable-background="new 0 0 24 24" viewBox="0 0 24 24" id="jquery">
        <path fill="#1266A9" d="M1.406,16.346c0.023,0.052,0.049,0.1,0.077,0.148c0.013,0.028,0.031,0.057,0.047,0.083c0.026,0.052,0.054,0.102,0.081,0.152l0.157,0.264c0.029,0.049,0.057,0.097,0.09,0.145c0.055,0.094,0.12,0.186,0.177,0.28c0.026,0.039,0.05,0.078,0.079,0.117c0.11,0.171,0.21,0.313,0.317,0.451c0.076,0.103,0.152,0.204,0.234,0.305c0.027,0.038,0.057,0.076,0.085,0.114l0.221,0.268c0.027,0.031,0.054,0.067,0.083,0.099c0.098,0.118,0.202,0.232,0.306,0.348c0,0.002,0.003,0.004,0.005,0.007c0.129,0.162,0.268,0.306,0.42,0.434l0.004,0.004c0.08,0.082,0.16,0.163,0.245,0.243l0.101,0.097c0.111,0.104,0.222,0.207,0.339,0.307c0.002,0,0.003,0.002,0.005,0.003l0.057,0.05c0.102,0.089,0.205,0.177,0.31,0.259l0.125,0.105c0.085,0.068,0.173,0.132,0.26,0.199l0.136,0.104c0.093,0.07,0.192,0.138,0.287,0.206c0.035,0.025,0.07,0.05,0.106,0.073l0.029,0.023l0.281,0.184l0.12,0.08c0.147,0.094,0.293,0.182,0.439,0.27c0.042,0.021,0.084,0.044,0.123,0.068c0.108,0.062,0.22,0.125,0.329,0.182c0.06,0.034,0.122,0.063,0.184,0.094c0.075,0.042,0.153,0.083,0.233,0.125c0.022,0.007,0.04,0.014,0.058,0.024L7.56,22.257c0.033,0.015,0.064,0.031,0.096,0.047c0.12,0.06,0.245,0.117,0.375,0.173c0.024,0.01,0.05,0.02,0.076,0.034c0.144,0.063,0.288,0.123,0.437,0.181c0.034,0.01,0.07,0.027,0.105,0.04c0.135,0.051,0.274,0.103,0.412,0.152l0.05,0.018c0.153,0.052,0.304,0.102,0.46,0.149c0.036,0.01,0.073,0.023,0.111,0.033c0.159,0.048,0.313,0.105,0.474,0.135c10.273,1.863,13.258-6.146,13.258-6.146c-2.508,3.25-6.959,4.107-11.174,3.153c-0.156-0.036-0.312-0.086-0.47-0.132c-0.286-0.083-0.476-0.143-0.663-0.209l0.095,0.029l-0.062-0.024c-0.136-0.046-0.267-0.097-0.4-0.148c-0.025-0.011-0.062-0.025-0.099-0.038l-0.011-0.003c-0.147-0.059-0.29-0.119-0.432-0.182c-0.031-0.01-0.057-0.024-0.088-0.036c-0.262-0.116-0.381-0.172-0.5-0.23l0.138,0.061c-0.037-0.016-0.07-0.033-0.106-0.052c-0.094-0.044-0.188-0.094-0.28-0.141c-0.086-0.041-0.147-0.073-0.207-0.106l0.02,0.01c-0.113-0.06-0.226-0.125-0.34-0.186c-0.034-0.024-0.073-0.044-0.112-0.066c-0.216-0.126-0.359-0.215-0.502-0.306l0.063,0.038c-0.048-0.03-0.087-0.056-0.124-0.083l0.006,0.004c-0.123-0.076-0.221-0.141-0.316-0.208c-0.034-0.022-0.065-0.046-0.1-0.07c-0.128-0.088-0.224-0.157-0.318-0.228l0.024,0.017c-0.042-0.034-0.087-0.066-0.132-0.099c-0.088-0.069-0.177-0.135-0.265-0.207l-0.118-0.094c-0.127-0.102-0.233-0.191-0.337-0.282c-0.01-0.01-0.021-0.019-0.033-0.027l-0.001-0.001l-0.347-0.315l-0.1-0.094c-0.082-0.083-0.166-0.162-0.25-0.244l-0.097-0.1c-0.104-0.103-0.204-0.207-0.303-0.315l-0.006-0.007L5.45,16.138c-0.106-0.116-0.209-0.233-0.313-0.353c-0.027-0.031-0.052-0.064-0.08-0.097L4.83,15.413c-0.079-0.098-0.19-0.243-0.3-0.391l-0.04-0.056C2.152,11.79,1.306,7.407,3.177,3.811L1.525,5.9C-0.6,8.939-0.337,12.891,1.288,16.118C1.325,16.197,1.366,16.271,1.406,16.346z"></path>
        <path d="M8.563,11.968c-0.004-0.005-0.007-0.011-0.011-0.016c-0.003-0.004-0.006-0.008-0.009-0.012L8.563,11.968z"></path>
        <path fill="#1266A9" d="M9.681,13.28l0.09,0.09c0.114,0.11,0.231,0.217,0.35,0.324l0.015,0.013c0.12,0.106,0.255,0.217,0.394,0.325l0.021,0.016c0.034,0.023,0.063,0.05,0.096,0.073c0.14,0.108,0.281,0.211,0.428,0.314l0.015,0.009c0.062,0.045,0.128,0.086,0.198,0.13c0.028,0.018,0.06,0.042,0.09,0.06c0.106,0.068,0.21,0.131,0.317,0.196c0.017,0.007,0.032,0.016,0.048,0.023c0.09,0.055,0.188,0.108,0.282,0.156c0.033,0.02,0.065,0.035,0.099,0.054c0.067,0.033,0.133,0.068,0.197,0.102l0.032,0.014c0.135,0.066,0.273,0.128,0.408,0.189c0.034,0.013,0.063,0.024,0.092,0.038c0.111,0.048,0.224,0.094,0.335,0.136c0.05,0.017,0.097,0.037,0.144,0.052c0.102,0.038,0.209,0.073,0.31,0.108l0.14,0.045c0.146,0.045,0.294,0.104,0.449,0.128C22.164,17.181,24,11.104,24,11.104c-1.653,2.367-4.852,3.495-8.261,2.614c-0.207-0.053-0.357-0.097-0.506-0.145l0.057,0.016c-0.048-0.013-0.09-0.028-0.136-0.042c-0.104-0.036-0.211-0.071-0.312-0.108l-0.144-0.054c-0.112-0.045-0.226-0.087-0.335-0.135c-0.034-0.015-0.065-0.025-0.091-0.04c-0.14-0.063-0.281-0.125-0.418-0.191l-0.206-0.107l-0.119-0.06c-0.092-0.048-0.177-0.098-0.265-0.149c-0.025-0.012-0.045-0.023-0.065-0.036l0.003,0.001c-0.106-0.066-0.216-0.13-0.318-0.197c-0.034-0.019-0.065-0.042-0.097-0.062l-0.208-0.135c-0.144-0.1-0.285-0.207-0.428-0.311c-0.032-0.029-0.063-0.053-0.094-0.079c-1.499-1.173-2.681-2.776-3.242-4.591c-0.591-1.887-0.461-4.003,0.56-5.72L8.12,3.341c-1.541,2.201-1.454,5.143-0.254,7.471c0.219,0.43,0.441,0.793,0.686,1.139c0.228,0.326,0.48,0.708,0.784,0.97C9.444,13.044,9.56,13.161,9.681,13.28z"></path>
        <polygon points="2.436 17.992 2.432 17.986 2.425 17.977"></polygon>
        <polygon points="6.594 17.248 6.604 17.255 6.606 17.258"></polygon>
        <path fill="#1266A9" d="M13.666,1.427c-0.909,1.327-0.996,2.975-0.37,4.438c0.665,1.554,2.024,2.774,3.608,3.352c0.065,0.025,0.128,0.046,0.195,0.07l0.088,0.027c0.092,0.029,0.185,0.063,0.28,0.084c4.381,0.841,5.567-2.238,5.886-2.691c-1.043,1.49-2.792,1.848-4.938,1.329c-0.21-0.052-0.383-0.107-0.55-0.17l0.033,0.011c-0.253-0.089-0.457-0.174-0.656-0.27l0.038,0.017c-0.41-0.2-0.762-0.416-1.089-0.664c-1.918-1.45-3.104-4.211-1.852-6.46L13.666,1.427z"></path>
    </symbol>
    <symbol fill="none" xmlns="http://www.w3.org/2000/svg" viewBox="0 0 97 100" id="js">
        <path d="M0 0H96.242V100H0V0Z" fill="#F7DF1E"></path>
        <path d="M25.3058 83.5671L32.6709 78.9358C34.0917 81.5534 35.3843 83.7682 38.4846 83.7682C41.4565 83.7682 43.3302 82.5602 43.3302 77.8618V45.9095H52.3745V77.9947C52.3745 87.728 46.8835 92.1583 38.8724 92.1583C31.6373 92.1583 27.4374 88.2649 25.3056 83.5663" fill="black"></path>
        <path d="M57.2868 82.5603L64.651 78.13C66.5896 81.4195 69.1091 83.8359 73.5665 83.8359C77.314 83.8359 79.7037 81.889 79.7037 79.204C79.7037 75.9819 77.2489 74.8406 73.1142 72.9617L70.8537 71.9541C64.3284 69.0682 59.9998 65.4435 59.9998 57.7909C59.9998 50.7427 65.168 45.3724 73.2437 45.3724C78.9935 45.3724 83.1281 47.4535 86.0995 52.8908L79.0577 57.5894C77.5071 54.7032 75.8279 53.5622 73.2439 53.5622C70.5951 53.5622 68.9153 55.3075 68.9153 57.5894C68.9153 60.4087 70.5951 61.5502 74.4709 63.2955L76.7318 64.3024C84.4197 67.726 88.7483 71.2162 88.7483 79.0697C88.7483 87.5281 82.3527 92.1593 73.7605 92.1593C65.3621 92.1593 59.9353 87.9978 57.287 82.5603" fill="black"></path>
    </symbol>
    <symbol fill="none" xmlns="http://www.w3.org/2000/svg" viewBox="0 0 106 100" id="react">
        <path d="M0 49.5504C0 57.9044 7.80178 65.7033 20.1019 70.0992C17.6457 83.0286 19.6617 93.4496 26.3955 97.5103C33.3171 101.684 43.6286 98.7949 53.4155 89.8497C62.9556 98.4337 72.5975 101.812 79.325 97.7398C86.2399 93.5542 88.3432 82.4263 85.819 69.0933C98.6303 64.6644 105.797 58.0144 105.797 49.5504C105.797 41.39 97.9803 34.3302 85.846 29.9624C88.5634 16.0784 86.2609 5.91019 79.2484 1.68185C72.4877 -2.39453 62.7338 1.15845 53.0534 9.96729C42.9826 0.617401 33.325 -2.23724 26.3193 2.00343C19.5651 6.09141 17.6378 16.7018 20.1019 29.8706C8.21711 34.2034 0 41.4226 0 49.5504Z" fill="white"></path>
        <path d="M83.2748 34.2996C82.3001 33.9488 81.2901 33.6169 80.2502 33.303C80.4212 32.5737 80.578 31.8537 80.7175 31.146C83.007 19.5254 81.5101 10.1638 76.3983 7.08156C71.4968 4.12609 63.4807 7.20764 55.3849 14.5745C54.6064 15.2829 53.8257 16.0329 53.0453 16.819C52.5254 16.2989 52.0063 15.7963 51.4885 15.3156C43.0038 7.43846 34.4992 4.11892 29.3925 7.21009C24.4956 10.1741 23.0455 18.9749 25.1064 29.9879C25.3054 31.0516 25.5381 32.1379 25.8011 33.2424C24.5975 33.5996 23.4355 33.9805 22.3237 34.3857C12.3763 38.0119 6.02344 43.6952 6.02344 49.5902C6.02344 55.6786 12.8432 61.7854 23.2042 65.4883C24.0218 65.7805 24.8703 66.0568 25.7446 66.3191C25.4608 67.5136 25.2139 68.6842 25.0067 69.8259C23.0416 80.6477 24.5762 89.2406 29.46 92.1859C34.5046 95.2276 42.9707 92.1011 51.2145 84.5663C51.8661 83.9707 52.52 83.3391 53.1751 82.677C54.0242 83.532 54.8719 84.3411 55.7152 85.1C63.7003 92.2849 71.5869 95.1862 76.4662 92.2326C81.5057 89.1822 83.1435 79.9514 81.0172 68.7206C80.8548 67.8628 80.6658 66.9865 80.4536 66.0947C81.0481 65.9109 81.6318 65.7212 82.2009 65.5239C92.9722 61.7924 99.9803 55.7599 99.9803 49.5902C99.9803 43.6738 93.4225 37.9523 83.2748 34.2996Z" fill="#53C1DE"></path>
        <path d="M80.9386 61.5405C80.4249 61.7183 79.8977 61.8902 79.3605 62.0569C78.1715 58.1207 76.5666 53.9352 74.6027 49.6109C76.4768 45.3895 78.0196 41.2575 79.1754 37.3469C80.1365 37.6378 81.0694 37.9445 81.9683 38.2682C90.6629 41.3978 95.9665 46.025 95.9665 49.5904C95.9665 53.3882 90.2388 58.3183 80.9386 61.5405ZM77.0797 69.5358C78.0199 74.502 78.1542 78.9919 77.5314 82.5019C76.9718 85.6558 75.8465 87.7586 74.455 88.6008C71.494 90.3929 65.1619 88.0634 58.3329 81.9189C57.55 81.2145 56.7615 80.4624 55.9704 79.6664C58.6179 76.6389 61.2638 73.1193 63.8462 69.2104C68.3883 68.789 72.6796 68.1 76.5711 67.1594C76.7628 67.9678 76.933 68.7607 77.0797 69.5358ZM38.0555 88.2911C35.1625 89.3594 32.8584 89.39 31.4656 88.5503C28.502 86.7629 27.2699 79.8636 28.9505 70.6088C29.143 69.549 29.3721 68.4602 29.6362 67.3474C33.4851 68.2373 37.7449 68.8776 42.2979 69.2636C44.8977 73.0885 47.62 76.6042 50.3635 79.6826C49.7641 80.2877 49.167 80.8637 48.5733 81.4065C44.9279 84.7383 41.2749 87.1022 38.0555 88.2911ZM24.5024 61.5172C19.9209 59.8799 16.1374 57.7519 13.544 55.4298C11.2137 53.3431 10.0371 51.2714 10.0371 49.5904C10.0371 46.0131 15.1378 41.4503 23.6449 38.3489C24.6771 37.9726 25.7577 37.618 26.879 37.2849C28.0547 41.2838 29.597 45.4647 31.4583 49.6925C29.573 53.9831 28.0088 58.2307 26.8215 62.2765C26.0221 62.0362 25.2476 61.7834 24.5024 61.5172ZM29.0455 29.1821C27.2797 19.7465 28.4524 12.6286 31.4034 10.8425C34.5467 8.93977 41.4975 11.6527 48.8233 18.4542C49.2916 18.889 49.7617 19.344 50.2332 19.8147C47.5033 22.8797 44.8059 26.369 42.2292 30.1714C37.8103 30.5996 33.5804 31.2875 29.6914 32.2088C29.4469 31.1804 29.2303 30.17 29.0455 29.1821ZM69.5742 39.6461C68.6445 37.967 67.6901 36.3276 66.7171 34.733C69.7149 35.1293 72.5871 35.6553 75.2844 36.299C74.4746 39.0126 73.4653 41.8498 72.2772 44.7584C71.4249 43.0666 70.5235 41.3607 69.5742 39.6461ZM53.0467 22.8141C54.8981 24.9113 56.7521 27.2528 58.5757 29.7933C56.7381 29.7025 54.8777 29.6553 53.0019 29.6553C51.1438 29.6553 49.2971 29.7015 47.4709 29.7907C49.2963 27.2738 51.1664 24.9354 53.0467 22.8141ZM36.4133 39.6752C35.4846 41.359 34.5999 43.0556 33.761 44.7553C32.5922 41.8568 31.5922 39.0066 30.7754 36.2545C33.4562 35.6273 36.3148 35.1144 39.2936 34.7257C38.3068 36.335 37.3445 37.9864 36.4133 39.6748V39.6752ZM39.3794 64.7546C36.3018 64.3956 33.4001 63.9091 30.7201 63.2991C31.5499 60.4979 32.5719 57.5868 33.7656 54.626C34.6066 56.3245 35.4948 58.0218 36.4292 59.7092H36.4294C37.3812 61.4284 38.3672 63.1124 39.3794 64.7546ZM53.1577 76.6627C51.2554 74.5165 49.3578 72.1425 47.5046 69.5888C49.3037 69.6626 51.1378 69.7004 53.0019 69.7004C54.917 69.7004 56.8102 69.6553 58.6736 69.5685C56.8439 72.1682 54.9966 74.5459 53.1577 76.6627ZM72.3155 54.4751C73.5713 57.4679 74.6299 60.3638 75.4705 63.1173C72.7463 63.7671 69.805 64.2905 66.706 64.6794C67.6814 63.0632 68.6442 61.3957 69.5903 59.6804C70.5474 57.945 71.4562 56.207 72.3155 54.4751ZM66.1135 57.5837C64.6448 60.2464 63.1369 62.7883 61.6061 65.1877C58.8181 65.3962 55.9376 65.5035 53.0019 65.5035C50.078 65.5035 47.2339 65.4086 44.4951 65.2227C42.9026 62.7918 41.362 60.2424 39.9027 57.6066H39.903C38.4475 54.978 37.1079 52.3271 35.894 49.6912C37.1075 47.049 38.4436 44.3952 39.8908 41.7713L39.8905 41.7718C41.3414 39.1409 42.8685 36.6039 44.4463 34.1883C47.2406 33.9674 50.1059 33.8522 53.0017 33.8522H53.0019C55.9107 33.8522 58.7798 33.9683 61.5732 34.1911C63.1269 36.5891 64.6436 39.1178 66.1003 41.7491C67.5735 44.4099 68.9268 47.0461 70.1507 49.6315C68.9305 52.2614 67.5802 54.9241 66.1135 57.5837ZM74.3935 10.7177C77.5398 12.6148 78.7633 20.2661 76.7865 30.2992C76.6604 30.9394 76.5184 31.5915 76.3642 32.2523C72.4662 31.3119 68.2333 30.612 63.8015 30.1773C61.2198 26.3331 58.5444 22.8384 55.859 19.8128C56.581 19.0866 57.302 18.3941 58.02 17.7406C64.9565 11.4287 71.4396 8.93662 74.3935 10.7177Z" fill="white"></path>
        <path d="M53.0033 40.8179C57.6369 40.8179 61.3933 44.7454 61.3933 49.5905C61.3933 54.4355 57.6369 58.3632 53.0033 58.3632C48.3697 58.3632 44.6133 54.4355 44.6133 49.5905C44.6133 44.7454 48.3697 40.8179 53.0033 40.8179Z" fill="#53C1DE"></path>
    </symbol>
    <symbol xmlns="http://www.w3.org/2000/svg" preserveAspectRatio="xMidYMid" viewBox="0 0 256 244" id="redux">
        <path fill="#764ABC" d="M177.381 169.733c9.447-.978 16.614-9.122 16.288-18.896-.325-9.773-8.47-17.592-18.243-17.592h-.651c-10.1.326-17.918 8.796-17.592 18.895.326 4.887 2.28 9.122 5.212 12.054-11.076 21.828-28.016 37.791-53.426 51.148-17.266 9.122-35.183 12.38-53.1 10.1-14.66-1.955-26.062-8.47-33.23-19.222-10.424-15.963-11.401-33.23-2.605-50.496 6.19-12.38 15.962-21.502 22.152-26.063-1.303-4.235-3.258-11.402-4.235-16.614-47.237 34.207-42.35 80.468-28.016 102.295 10.75 16.29 32.577 26.389 56.684 26.389 6.515 0 13.03-.652 19.546-2.28 41.699-8.145 73.299-32.905 91.216-69.718zm57.336-40.397c-24.759-28.995-61.245-44.958-102.944-44.958h-5.212c-2.932-5.864-9.122-9.774-15.963-9.774h-.652C99.848 74.93 92.03 83.4 92.355 93.5c.326 9.773 8.47 17.592 18.243 17.592h.651c7.167-.326 13.357-4.887 15.963-11.077h5.864c24.759 0 48.214 7.167 69.39 21.176 16.288 10.751 28.016 24.76 34.531 41.7 5.538 13.683 5.212 27.04-.652 38.443-9.121 17.266-24.432 26.714-44.63 26.714-13.031 0-25.41-3.91-31.926-6.842-3.583 3.258-10.099 8.47-14.66 11.729 14.009 6.515 28.343 10.099 42.025 10.099 31.274 0 54.404-17.267 63.2-34.533 9.447-18.896 8.795-51.474-15.637-79.165zM69.225 175.27c.326 9.774 8.47 17.592 18.243 17.592h.652c10.099-.325 17.917-8.796 17.591-18.895-.325-9.774-8.47-17.592-18.243-17.592h-.651c-.652 0-1.63 0-2.28.325-13.357-22.153-18.895-46.26-16.94-72.323 1.302-19.547 7.818-36.488 19.22-50.497 9.447-12.054 27.69-17.918 40.07-18.243 34.531-.652 49.19 42.351 50.168 59.618 4.235.977 11.402 3.258 16.289 4.887C189.434 27.366 156.857 0 125.584 0c-29.32 0-56.359 21.176-67.11 52.451-14.985 41.7-5.212 81.771 13.031 113.372-1.628 2.28-2.606 5.864-2.28 9.448z"></path>
    </symbol>
    <symbol fill="none" xmlns="http://www.w3.org/2000/svg" viewBox="0 0 128 100" id="sass">
        <path d="M109.974 57.4487C105.547 57.475 101.713 58.5946 98.4977 60.2615C97.3105 57.7875 96.1233 55.6258 95.9257 54.0115C95.7031 52.1365 95.431 50.9904 95.7031 48.7511C95.9749 46.5112 97.2116 43.3341 97.2116 43.0737C97.1866 42.8393 96.9393 41.6935 94.392 41.6675C91.8447 41.6414 89.6432 42.1883 89.3959 42.8914C89.1485 43.5946 88.6539 45.2091 88.3323 46.8758C87.8871 49.3237 83.2373 57.9956 80.5908 62.5529C79.7252 60.782 78.9832 59.2196 78.8345 57.9693C78.6122 56.0946 78.3399 54.9485 78.6122 52.7091C78.8842 50.4693 80.1209 47.2925 80.1209 47.0321C80.0962 46.7977 79.8488 45.6518 77.3016 45.6258C74.7538 45.5998 72.5528 46.1466 72.3055 46.8498C72.0581 47.5529 71.7861 49.2196 71.2419 50.8341C70.7223 52.4487 64.539 66.9279 62.9313 70.7039C62.1151 72.631 61.3981 74.1675 60.8785 75.2091C60.3591 76.2508 60.8537 75.2873 60.8043 75.3914C60.3591 76.2768 60.1117 76.7716 60.1117 76.7716V76.7979C59.7655 77.449 59.3945 78.0737 59.2211 78.0737C59.0974 78.0737 58.8501 76.3289 59.2705 73.9333C60.1857 68.9071 62.4117 61.0688 62.3872 60.7823C62.3872 60.6521 62.8074 59.2716 60.9524 58.5688C59.1469 57.8656 58.5041 59.0375 58.3554 59.0375C58.207 59.0375 58.0834 59.4542 58.0834 59.4542C58.0834 59.4542 60.0867 50.6263 54.2497 50.6263C50.5892 50.6263 45.5436 54.819 43.0456 58.6472C41.4626 59.5586 38.0989 61.4854 34.5373 63.543C33.177 64.3242 31.7672 65.1576 30.4316 65.9128L30.1598 65.5998C23.0861 57.6571 10.0022 52.0321 10.5463 41.355C10.7442 37.4748 12.0303 27.2404 35.6755 14.8446C55.0417 4.68832 70.5494 7.47477 73.2451 13.6727C77.0787 22.5269 64.9594 38.9852 44.8268 41.355C37.1595 42.2664 33.1278 39.1414 32.114 37.9696C31.0504 36.7456 30.902 36.6935 30.5063 36.9279C29.8632 37.2925 30.259 38.3862 30.5063 39.0373C31.0999 40.6779 33.5732 43.5946 37.7779 45.0529C41.4629 46.3289 50.466 47.0321 61.3486 42.605C73.5421 37.631 83.0644 23.8289 80.2696 12.2925C77.4252 0.547694 58.9248 -3.30647 41.4384 3.22998C31.0255 7.13623 19.7471 13.23 11.6346 21.2248C1.98864 30.7039 0.45518 38.9852 1.09824 42.4227C3.34921 54.6883 19.4008 62.6831 25.8315 68.5946C25.5099 68.7766 25.2131 68.9589 24.9411 69.1154C21.7258 70.7818 9.48281 77.5268 6.41589 84.662C2.95324 92.7349 6.96002 98.5425 9.63121 99.3237C17.8921 101.746 26.3509 97.3966 30.9265 90.2352C35.4772 83.0737 34.9333 73.7768 32.831 69.5321L32.7565 69.3758L35.2793 67.8133C36.912 66.7977 38.5196 65.8602 39.9292 65.0526C39.138 67.3182 38.5688 70.0005 38.2723 73.9068C37.926 78.4904 39.7068 84.4276 42.0565 86.7714C43.0953 87.7867 44.3319 87.813 45.0987 87.813C47.8193 87.813 49.056 85.443 50.4163 82.6047C52.0982 79.1412 53.5822 75.1307 53.5822 75.1307C53.5822 75.1307 51.7272 85.9901 56.7975 85.9901C58.6525 85.9901 60.5075 83.4641 61.3484 82.162V82.188C61.3484 82.188 61.3979 82.1099 61.4968 81.9276C61.6006 81.7661 61.6995 81.6011 61.7936 81.4331V81.381C62.5356 80.0268 64.1927 76.9279 66.666 71.7977C69.8564 65.1831 72.9235 56.9018 72.9235 56.9018C72.9235 56.9018 73.2203 58.9331 74.1355 62.2664C74.6794 64.2458 75.8665 66.4071 76.7817 68.5164C76.0397 69.6102 75.5945 70.2354 75.5945 70.2354L75.6192 70.2615C75.0259 71.0948 74.3578 71.9805 73.6655 72.8656C71.1427 76.0427 68.1253 79.6628 67.7296 80.7044C67.2596 81.9281 67.3586 82.8396 68.2737 83.569C68.9415 84.0899 70.1287 84.1938 71.3901 84.0899C73.6655 83.9333 75.2485 83.3347 76.0399 82.9698C77.2766 82.5011 78.6864 81.7979 80.0467 80.7563C82.52 78.8294 84.0288 76.0951 83.8804 72.4492C83.8062 70.444 83.1878 68.4649 82.4211 66.5899C82.6437 66.2513 82.8665 65.9125 83.0889 65.5482C86.9967 59.5323 90.0142 52.918 90.0142 52.918C90.0142 52.918 90.311 54.9492 91.2261 58.2826C91.6958 59.9753 92.6359 61.8245 93.4769 63.6474C89.8163 66.7985 87.5161 70.4443 86.7247 72.8401C85.2654 77.2672 86.4032 79.2724 88.5549 79.7412C89.5193 79.9495 90.9046 79.4808 91.9431 79.012C93.2293 78.5693 94.7875 77.8138 96.2222 76.6943C98.6956 74.7672 101.07 72.0849 100.946 68.4651C100.872 66.7985 100.452 65.1578 99.8828 63.5953C102.999 62.2412 107.03 61.4599 112.15 62.111C123.157 63.4651 125.333 70.7047 124.913 73.7255C124.493 76.7466 122.192 78.413 121.425 78.9339C120.659 79.4287 120.411 79.6112 120.486 79.9755C120.584 80.5227 120.931 80.4964 121.599 80.3925C122.514 80.236 127.386 77.9185 127.584 72.3458C127.881 65.1833 121.425 57.3709 109.974 57.4487ZM25.0895 87.5789C21.4537 91.7716 16.3339 93.3602 14.1574 92.006C11.8077 90.5737 12.7226 84.4018 17.1996 79.9487C19.9202 77.2404 23.4571 74.7404 25.782 73.2039C26.3014 72.8654 27.0929 72.3709 28.0327 71.7716C28.1811 71.6677 28.2801 71.6154 28.2801 71.6154C28.4532 71.5112 28.6511 71.381 28.8489 71.2508C30.5061 77.605 28.9231 83.1779 25.0895 87.5789ZM51.6777 68.5425C50.4163 71.7977 47.7451 80.1571 46.1375 79.6883C44.7521 79.2977 43.9115 72.9696 45.8651 66.7196C46.8545 63.5682 48.9568 59.8185 50.1935 58.3599C52.1971 56.0162 54.3734 55.2349 54.9177 56.1985C55.5608 57.4487 52.4692 66.5112 51.6777 68.5425ZM73.6161 79.5841C73.0719 79.8708 72.5773 80.0789 72.3547 79.9229C72.1815 79.8188 72.577 79.4281 72.577 79.4281C72.577 79.4281 75.3224 76.3292 76.4107 74.8969C77.029 74.0638 77.771 73.1003 78.5625 72.0063V72.3188C78.5627 76.0685 75.1495 78.5685 73.6161 79.5841ZM90.5333 75.5216C90.1376 75.2091 90.1873 74.2456 91.5227 71.2248C92.0423 70.0268 93.2293 68.0216 95.2821 66.1206C95.5295 66.9018 95.6781 67.6568 95.6531 68.3602C95.6286 73.0477 92.4628 74.7925 90.5333 75.5216Z" fill="#CF649A"></path>
    </symbol>
    <symbol fill="none" xmlns="http://www.w3.org/2000/svg" viewBox="0 0 100 100" id="ts">
        <path d="M0 50V100H50H100V50V0H50H0V50Z" fill="#007ACC"></path>
        <path d="M22.1132 50.3318L22.0815 54.427L28.5894 54.427H35.0974V72.9191V91.4111H39.7005H44.3037V72.9191L44.3037 54.427H50.8116H57.3196V50.4111C57.3196 48.1889 57.272 46.3318 57.2085 46.2841C57.1608 46.2207 49.2402 46.1889 39.637 46.2048L22.1609 46.2524L22.1132 50.3318Z" fill="white"></path>
        <path d="M80.6906 46.1362C83.2302 46.7711 85.1668 47.8981 86.9445 49.7393C87.8652 50.7235 89.2302 52.5171 89.3414 52.9457C89.3731 53.0727 85.0239 55.9933 82.389 57.6282C82.2937 57.6917 81.9128 57.279 81.4842 56.6441C80.1985 54.7711 78.8493 53.9616 76.7858 53.8187C73.754 53.6124 71.8017 55.1997 71.8175 57.8505C71.8175 58.6282 71.9287 59.0886 72.2461 59.7235C72.9128 61.1044 74.1509 61.9298 78.0398 63.6124C85.1985 66.6917 88.262 68.7235 90.1668 71.6124C92.2937 74.8346 92.7699 79.9774 91.3255 83.8028C89.7382 87.9616 85.8017 90.787 80.262 91.7235C78.5477 92.0251 74.4842 91.9774 72.6429 91.6441C68.6271 90.9298 64.8175 88.9457 62.4683 86.3425C61.5477 85.3266 59.7541 82.6759 59.8652 82.4854C59.9128 82.4219 60.3255 82.1679 60.7858 81.8981C61.2302 81.6441 62.9128 80.6759 64.5001 79.7552L67.3731 78.0885L67.9763 78.9774C68.8175 80.2631 70.6588 82.0251 71.7699 82.6124C74.9604 84.2949 79.3414 84.0568 81.5001 82.1203C82.4207 81.279 82.8017 80.406 82.8017 79.1203C82.8017 77.9616 82.6588 77.4536 82.0556 76.5806C81.2779 75.4695 79.6906 74.533 75.1826 72.5806C70.0239 70.3584 67.8017 68.9774 65.7699 66.787C64.5953 65.5171 63.4842 63.4854 63.0239 61.787C62.6429 60.3743 62.5477 56.8346 62.8493 55.406C63.9128 50.4219 67.6747 46.9457 73.1033 45.9139C74.8652 45.5806 78.9604 45.7076 80.6906 46.1362Z" fill="white"></path>
    </symbol>
</svg>