<?xml version="1.0" standalone="no"?>
<!DOCTYPE svg PUBLIC "-//W3C//DTD SVG 20010904//EN"
 "http://www.w3.org/TR/2001/REC-SVG-20010904/DTD/svg10.dtd">
<svg version="1.0" xmlns="http://www.w3.org/2000/svg"
 width="700.000000pt" height="700.000000pt" viewBox="0 0 700.000000 700.000000"
 preserveAspectRatio="xMidYMid meet">
<metadata>
Created by potrace 1.14, written by Peter Selinger 2001-2017
</metadata>
<g transform="translate(0.000000,700.000000) scale(0.100000,-0.100000)"
fill="#000000" stroke="none">
<path d="M2280 6989 c-123 -34 -224 -130 -261 -250 -17 -55 -19 -95 -19 -400
l0 -339 -702 -1 c-387 -1 -710 -1 -718 0 -67 6 -259 -65 -325 -120 -131 -109
-200 -211 -234 -346 -20 -75 -20 -112 -21 -868 l0 -791 3497 1 3498 0 3 775
c1 519 -1 793 -9 830 -5 30 -12 65 -15 78 -5 26 -54 129 -75 159 -111 157
-274 260 -439 277 -30 3 -371 6 -757 6 l-703 0 0 339 c0 305 -2 345 -19 400
-37 119 -131 210 -250 245 -47 14 -192 16 -1235 15 -714 0 -1195 -4 -1216 -10z
m2220 -739 l0 -250 -1000 0 -1000 0 0 250 0 250 1000 0 1000 0 0 -250z"/>
<path d="M3 2508 c2 -546 7 -1009 11 -1028 20 -91 85 -207 159 -284 90 -93
174 -143 302 -177 68 -18 166 -19 3050 -16 l2980 2 75 29 c213 82 361 250 405
461 13 64 15 210 15 1040 l0 965 -1313 0 -1312 0 0 -322 c1 -178 -3 -341 -8
-363 -16 -67 -66 -126 -142 -167 -40 -22 -42 -22 -720 -22 -664 0 -681 0 -725
20 -25 12 -63 39 -86 62 -66 68 -70 91 -69 465 l0 327 -1313 0 -1313 0 4 -992z"/>
<path d="M3000 3250 l0 -250 500 0 500 0 0 250 0 250 -500 0 -500 0 0 -250z"/>
</g>
</svg>
