<svg width="0" height="0" class="hidden">

    <symbol xmlns="http://www.w3.org/2000/svg" viewBox="0 0 128 128" id="git">
        <path fill="#F34F29"
            d="M124.737 58.378l-55.116-55.114c-3.172-3.174-8.32-3.174-11.497 0l-11.444 11.446 14.518 14.518c3.375-1.139 7.243-.375 9.932 2.314 2.703 2.706 3.461 6.607 2.294 9.993l13.992 13.993c3.385-1.167 7.292-.413 9.994 2.295 3.78 3.777 3.78 9.9 0 13.679-3.78 3.78-9.901 3.78-13.683 0-2.842-2.844-3.545-7.019-2.105-10.521l-13.048-13.048-.002 34.341c.922.455 1.791 1.063 2.559 1.828 3.778 3.777 3.778 9.898 0 13.683-3.779 3.777-9.904 3.777-13.679 0-3.778-3.784-3.778-9.905 0-13.683.934-.933 2.014-1.638 3.167-2.11v-34.659c-1.153-.472-2.231-1.172-3.167-2.111-2.862-2.86-3.551-7.06-2.083-10.576l-14.313-14.313-37.792 37.79c-3.175 3.177-3.175 8.325 0 11.5l55.117 55.114c3.174 3.174 8.32 3.174 11.499 0l54.858-54.858c3.174-3.176 3.174-8.327-.001-11.501z">
        </path>
    </symbol>
    <symbol xmlns="http://www.w3.org/2000/svg" viewBox="0 0 5105.4 5105.4" id="gulp">
        <path fill="#cf4547" d="M0 0h5105.4v5105.4H0z"></path>
        <path fill="#fff" stroke="#fff" stroke-miterlimit="10" stroke-width="13.386"
            d="M1766.5 2586.7c-2.4 3.5-6.6 14.4-12.8 32.9-6.2 18.5-13.7 41.6-22.5 69.4-8.8 27.8-18.4 59-28.6 93.4-10.3 34.4-20.9 69.6-31.7 105.4-10.9 35.9-21.3 71-31.3 105.5-10 34.4-19 65.6-26.9 93.4-7.9 27.8-14.5 51.1-19.8 70-5.3 18.8-8.5 29.9-9.7 33.4-2.9 11.1-7.6 23.5-14.1 37.1-6.5 13.6-14.1 26.4-22.9 38.6-8.8 12.2-18.5 22.3-29.1 30.3-10.6 8-21.5 12-32.6 12-18.8 0-32.5-6.3-41-18.8s-12.8-35.5-12.8-68.9v-14.6c0-4.9.3-10.1.9-15.6.6-11.1 5-32 13.2-62.7 8.2-30.6 18.1-65.2 29.5-103.9s23.8-78.6 37-120.1c13.2-41.4 25.1-78.5 35.7-111.2-31.2 34.8-64.9 69.4-101.4 103.9-36.4 34.5-73.8 65.4-111.9 92.9-38.2 27.5-76.7 50-115.5 67.3-38.8 17.4-76.1 26.1-111.9 26.1-41.1 0-76.5-9.1-106.2-27.1-29.7-18.1-54.2-41.8-73.6-71s-33.8-62.3-43.2-99.2c-9.4-36.9-14.1-73.8-14.1-110.7v-13.6c0-4.2.3-8.3.9-12.5 3.5-66.8 13.1-135.4 28.6-205.7 15.6-70.3 36-140.3 61.3-209.8 25.3-69.6 54.5-137.6 87.7-204.1s69.3-129.3 108.4-188.4c39.1-59.1 80.6-113.6 124.7-163.4 44.1-49.8 89.3-92.6 135.7-128.4 46.4-35.8 93.3-63.8 140.6-84 47.3-20.2 94.2-30.3 140.6-30.3 53.5 0 105.2 14.6 155.1 43.8 49.9 29.2 96.6 76.6 140.1 142 10 14.6 16.3 29.4 18.9 44.4 2.6 15 4 29.1 4 42.3 0 31.3-7.5 56-22.5 74.1-15 18.1-32.8 27.1-53.3 27.1-18.8 0-36.3-9.9-52.4-29.8-16.2-19.8-34.2-48.2-54.2-85.1-18.8-33.4-39.5-57.6-62.1-72.6-22.6-15-47.2-22.4-73.6-22.4-41.1 0-85.1 17.1-131.8 51.2-46.7 34.1-93 79.2-138.8 135.2-45.8 56-89.8 120-131.8 192.1-42 72-79.2 145.8-111.5 221.3s-58 150-77.1 223.4c-19.1 73.4-28.6 139.4-28.6 197.9 0 19.5 1.3 39.5 4 60s7.6 39.2 15 55.9c7.3 16.7 17.3 30.5 30 41.2 12.6 10.8 28.6 16.2 48 16.2 21.7 0 46.4-7.3 74-21.9 27.6-14.6 56.3-33.7 85.9-57.4 29.7-23.7 59.5-50.5 89.5-80.4 30-29.9 57.9-60.2 83.7-90.8 25.8-30.6 48.8-60 68.7-88.2 20-28.2 35-52.7 44.9-73.6l82-245.3c10-26.4 23.1-45.2 39.2-56.4 16.2-11.1 32.8-16.7 49.8-16.7 8.2 0 16.4 1.4 24.7 4.2 8.2 2.8 15.6 7.1 22 13.1 6.5 5.9 11.6 13.6 15.4 23 3.8 9.4 5.7 20.4 5.7 32.9 0 33.4-2.9 64.7-8.8 94-5.9 29.3-13.4 57.8-22.5 85.6-9.1 27.8-19.2 55.9-30.4 84-11 28-21.9 57.4-32.4 88.1zM2877.9 2791.3c-25.9 34.8-56 68.7-90.3 101.8-34.4 33.1-69.8 62.5-106.2 88.2-36.4 25.7-72.3 46.4-107.5 62.1-35.3 15.7-67 23.5-95.2 23.5s-51.1-9.4-68.8-28.2c-17.6-18.8-26.4-50.8-26.4-96.1 0-32 4.7-69.3 14.1-111.7-15.3 27.2-34.4 54.7-57.3 82.5-22.9 27.8-49.1 53.2-78.5 76.2s-62.3 41.6-98.7 55.8c-36.4 14.3-76.1 21.4-119 21.4-19.4 0-38.1-2.4-56-7.3s-33.6-13.2-47.1-25-24.4-27.6-32.6-47.5c-8.2-19.8-12.3-44.7-12.3-74.6 0-.7 1.2-11.3 3.5-31.8s9.8-52.9 22.5-97.1c12.6-44.2 32.2-101.4 58.6-171.7 26.5-70.3 63.8-155.5 111.9-255.8 12.3-26.4 26.6-45.4 42.7-56.9 16.2-11.5 33.6-17.2 52.4-17.2 8.2 0 16.7 1.2 25.6 3.6 8.8 2.5 17 6.3 24.7 11.5 7.6 5.2 13.8 11.8 18.5 19.8 4.7 8 7.1 17.2 7.1 27.7 0 7-.9 13.6-2.7 19.8-2.9 11.9-9.2 27.3-19 46.5-9.7 19.2-21 41.1-33.9 65.8-12.9 24.7-26.6 51.3-41 79.9-14.4 28.5-27.8 58.1-40.1 88.7s-22.9 61.8-31.7 93.4c-8.8 31.7-13.8 62.5-15 92.4 0 12.5 2.9 24 8.8 34.5 5.9 10.4 15.6 15.7 29.1 15.7 38.2 0 74.6-12.5 109.3-37.6 34.7-25 66.7-56.2 96.1-93.4 29.4-37.2 56-77.2 79.8-120.1 23.8-42.8 43.7-81.9 59.5-117.4 11.2-23.7 21-49.1 29.5-76.2s17.8-52.2 27.8-75.2 21.4-42.1 34.4-57.4c12.9-15.3 29.1-23 48.5-23 21.1 0 37.9 8 50.2 24 12.3 16 18.5 35.2 18.5 57.4 0 12.5-3.9 29.8-11.9 51.7-8 21.9-17.9 47-30 75.2-12 28.2-25.1 58.3-39.2 90.3-14.1 32-27.2 64.6-39.2 97.6-12.1 33.1-22 65.4-30 97.1-7.9 31.7-11.9 61.1-11.9 88.2 0 25.1 12.9 37.6 38.8 37.6 18.2 0 40.8-6.3 67.9-18.8 27.1-12.5 55.4-30.1 85.1-52.7 29.7-22.6 59.3-49.2 89-79.9 29.7-30.6 56-63.7 78.9-99.2l8.7 141.9z">
        </path>
        <path fill="#fff" stroke="#fff" stroke-miterlimit="10" stroke-width="13.386"
            d="M2905.3 2739.1c-6.5 16-12.8 34.6-19 55.9-6.2 21.2-9.2 40.2-9.2 56.9 0 10.4 1.8 18.8 5.3 25.1 3.5 6.3 10.3 9.4 20.3 9.4 12.3 0 27.7-4.3 46.3-13.1 18.5-8.7 38.5-20.2 59.9-34.5 21.5-14.2 43.8-30.6 67-49.1 23.2-18.4 46.3-37.6 69.2-57.4 22.9-19.9 44.8-39.7 65.7-59.5 20.9-19.9 39.5-38.1 56-54.8 4.7-4.9 10.3-8.4 16.7-10.4 6.4-2.1 12-3.1 16.7-3.1 11.7 0 21.5 4.9 29.1 14.6 7.6 9.7 11.4 22.6 11.4 38.6 0 14.6-4.1 31-12.3 49.1-8.2 18.1-22.6 35.9-43.2 53.2-37.6 41.1-75.5 80-113.7 116.9-38.2 36.9-76.2 69.4-114.1 97.6-37.9 28.2-75.5 50.6-112.8 67.4-37.3 16.7-73.6 25-108.9 25-24.1 0-44.2-3.8-60.4-11.5-16.2-7.7-29.1-18.1-38.8-31.3-9.7-13.2-16.6-28.9-20.7-47-4.1-18.1-6.2-37.2-6.2-57.4 0-34.1 4.3-69.1 12.8-104.9 8.5-35.8 18.6-68.7 30.4-98.6 20.6-54.3 41.4-108.2 62.6-161.8 21.1-53.6 40.5-102.7 58.2-147.2l267-673.4c10.6-27.1 24.8-46.3 42.8-57.4 17.9-11.1 36-16.7 54.2-16.7 18.2 0 34.8 5.9 49.8 17.7 15 11.8 22.5 31 22.5 57.4 0 12.5-2.5 25.8-7.5 39.7-5 13.9-11.3 28.9-18.9 44.9-14.7 32.7-32.2 72.7-52.4 120-20.3 47.3-42 98.8-65.2 154.5-23.2 55.7-47 113.6-71.4 173.8-24.4 60.2-48.2 118.8-71.4 175.9-23.2 57.1-44.9 111.2-65.2 162.3-20.5 51.2-38 95.6-52.6 133.2z">
        </path>
        <path fill="#fff" stroke="#fff" stroke-miterlimit="10" stroke-width="13.386"
            d="M4154.2 2550.1c8.2-5.6 15.9-10.1 22.9-13.6 7-3.5 13.8-5.2 20.3-5.2 12.9 0 22.6 5.8 29.1 17.2 6.5 11.5 9.7 25.6 9.7 42.3 0 18.1-3.9 36.5-11.9 55.3-7.9 18.8-19.8 34.4-35.7 47-62.9 55.7-119 106.5-168.3 152.4-49.4 45.9-95.9 85.4-139.7 118.5-43.8 33.1-86.5 58.6-128.2 76.7-41.7 18.1-86.4 27.1-134 27.1-44.7 0-79.2-9.8-103.6-29.2-24.4-19.5-36.6-46.3-36.6-80.4v-7.8c0-2.4.3-5.4.9-8.9 2.3-20.9 11.5-44.9 27.3-72 15.9-27.1 35-55.3 57.3-84.6s46.1-58.8 71.4-88.7c25.3-29.9 48.6-58.3 70.1-85.1 21.4-26.8 39.2-51.3 53.3-73.6 14.1-22.3 21.2-40.3 21.2-54.3 0-8.4-3-15-8.8-19.8-5.9-4.9-15.6-7.3-29.1-7.3-23.5 0-47.7 6.1-72.7 18.3-25 12.2-49.7 28.5-74 49-24.4 20.5-48.2 44-71.4 70.5-23.2 26.5-44.9 53.9-65.2 82.5-20.3 28.6-38.8 57.2-55.5 86.1-16.7 28.9-31 55.5-42.7 79.9-3.5 7.7-8.5 18.5-15 32.4-6.5 13.9-13.5 29.6-21.1 47-7.7 17.4-15.7 35.3-24.3 53.7-8.5 18.5-16.3 35.9-23.3 52.2-7.1 16.4-13.4 30.9-19 43.9-5.6 12.9-9.6 21.7-11.9 26.6-3 6.3-7.8 18.1-14.6 35.5s-14.5 37.7-23.4 61.1c-8.8 23.3-18.1 47.8-27.7 73.6-9.7 25.8-18.8 50.1-27.3 73.1-8.5 23-16 43.1-22.5 60.5s-10.6 29.2-12.4 35.5c-5.9 18.1-12.8 35.1-20.7 51.2-7.9 16-17 30.1-27.3 42.3-10.3 12.2-22 21.9-35.3 29.2-13.2 7.3-28.1 10.9-44.5 10.9-21.2 0-38.6-5.1-52.5-15.1-13.8-10.1-20.7-29.4-20.7-57.9 0-13.9 1.8-28.2 5.3-42.8 3.5-14.6 8-29.1 13.2-43.3 5.3-14.3 10.7-28.2 16.3-41.7 5.6-13.6 10.7-26.6 15.4-39.2 31.7-69.6 64.1-139.4 97-209.3 32.9-70 64.5-139.2 94.7-207.8 30.3-68.5 58.3-135.9 84.2-202 25.8-66.1 47.3-129.5 64.3-190 4.7-12.5 11.2-30.3 19.4-53.3 8.2-23 17.6-45.6 28.2-67.9 10.6-22.3 22.5-41.6 35.7-57.9 13.2-16.4 27.5-24.5 42.7-24.5 23.5 0 40.5 5.4 51.1 16.2 10.6 10.8 15.9 26.6 15.9 47.5 0 4.2-.6 10.8-1.8 19.8-1.2 9-2.7 18.6-4.4 28.7-1.8 10.1-3.7 19.7-5.7 28.7-2.1 9-4 15.6-5.7 19.8 21.7-23.7 45.2-47.1 70.5-70.5 25.3-23.3 51.4-44.4 78.5-63.2 27-18.8 54.6-34.1 82.8-46 28.2-11.8 56.4-17.7 84.6-17.7 19.4 0 38.6 2.8 57.7 8.4 19.1 5.6 36.1 13.7 51.1 24.5s27.2 24.4 36.6 40.7c9.4 16.4 14.1 35.3 14.1 56.9 0 28.6-7.2 59-21.6 91.4-14.4 32.4-32.5 64.9-54.2 97.6-21.8 32.7-45.3 64.6-70.5 95.5-25.3 31-48.9 59.2-71 84.6-22 25.4-40.5 47-55.5 64.7-15 17.8-22.8 29.8-23.4 36 0 8.4 2.7 15.1 7.9 20.4s14.1 7.8 26.5 7.8c10 0 24.7-5.6 44.1-16.7 19.4-11.1 46.6-30.4 81.5-57.9s79.3-64.4 133.1-110.7c53.8-46.2 120.1-104.5 198.8-174.8z">
        </path>
    </symbol>
    <symbol fill="none" xmlns="http://www.w3.org/2000/svg" viewBox="0 0 85 100" id="html">
        <path d="M0.015625 0L7.68491 90L42.1215 100L76.546 90.0062L84.2273 0H0.015625Z" fill="#FF5722"></path>
        <path
            d="M67.5955 29.4316H42.1215H27.2341L28.1965 40.7379H42.1215H66.6331L63.7399 74.6379L42.1215 80.9066L42.1035 80.9129L20.4972 74.6379L18.9874 56.9066H29.574L30.362 66.1066L42.1095 69.4254L42.1215 69.4191L53.8811 66.1004L55.1082 51.7816H42.1215H18.5543L15.7031 18.4004H42.1215H68.5339L67.5955 29.4316Z"
            fill="#FAFAFA"></path>
    </symbol>
    <symbol fill="none" xmlns="http://www.w3.org/2000/svg" viewBox="0 0 97 100" id="js">
        <path d="M0 0H96.242V100H0V0Z" fill="#F7DF1E"></path>
        <path
            d="M25.3058 83.5671L32.6709 78.9358C34.0917 81.5534 35.3843 83.7682 38.4846 83.7682C41.4565 83.7682 43.3302 82.5602 43.3302 77.8618V45.9095H52.3745V77.9947C52.3745 87.728 46.8835 92.1583 38.8724 92.1583C31.6373 92.1583 27.4374 88.2649 25.3056 83.5663"
            fill="black"></path>
        <path
            d="M57.2868 82.5603L64.651 78.13C66.5896 81.4195 69.1091 83.8359 73.5665 83.8359C77.314 83.8359 79.7037 81.889 79.7037 79.204C79.7037 75.9819 77.2489 74.8406 73.1142 72.9617L70.8537 71.9541C64.3284 69.0682 59.9998 65.4435 59.9998 57.7909C59.9998 50.7427 65.168 45.3724 73.2437 45.3724C78.9935 45.3724 83.1281 47.4535 86.0995 52.8908L79.0577 57.5894C77.5071 54.7032 75.8279 53.5622 73.2439 53.5622C70.5951 53.5622 68.9153 55.3075 68.9153 57.5894C68.9153 60.4087 70.5951 61.5502 74.4709 63.2955L76.7318 64.3024C84.4197 67.726 88.7483 71.2162 88.7483 79.0697C88.7483 87.5281 82.3527 92.1593 73.7605 92.1593C65.3621 92.1593 59.9353 87.9978 57.287 82.5603"
            fill="black"></path>
    </symbol>
    <symbol fill="none" xmlns="http://www.w3.org/2000/svg" viewBox="0 0 106 100" id="react">
        <path
            d="M0 49.5504C0 57.9044 7.80178 65.7033 20.1019 70.0992C17.6457 83.0286 19.6617 93.4496 26.3955 97.5103C33.3171 101.684 43.6286 98.7949 53.4155 89.8497C62.9556 98.4337 72.5975 101.812 79.325 97.7398C86.2399 93.5542 88.3432 82.4263 85.819 69.0933C98.6303 64.6644 105.797 58.0144 105.797 49.5504C105.797 41.39 97.9803 34.3302 85.846 29.9624C88.5634 16.0784 86.2609 5.91019 79.2484 1.68185C72.4877 -2.39453 62.7338 1.15845 53.0534 9.96729C42.9826 0.617401 33.325 -2.23724 26.3193 2.00343C19.5651 6.09141 17.6378 16.7018 20.1019 29.8706C8.21711 34.2034 0 41.4226 0 49.5504Z"
            fill="white"></path>
        <path
            d="M83.2748 34.2996C82.3001 33.9488 81.2901 33.6169 80.2502 33.303C80.4212 32.5737 80.578 31.8537 80.7175 31.146C83.007 19.5254 81.5101 10.1638 76.3983 7.08156C71.4968 4.12609 63.4807 7.20764 55.3849 14.5745C54.6064 15.2829 53.8257 16.0329 53.0453 16.819C52.5254 16.2989 52.0063 15.7963 51.4885 15.3156C43.0038 7.43846 34.4992 4.11892 29.3925 7.21009C24.4956 10.1741 23.0455 18.9749 25.1064 29.9879C25.3054 31.0516 25.5381 32.1379 25.8011 33.2424C24.5975 33.5996 23.4355 33.9805 22.3237 34.3857C12.3763 38.0119 6.02344 43.6952 6.02344 49.5902C6.02344 55.6786 12.8432 61.7854 23.2042 65.4883C24.0218 65.7805 24.8703 66.0568 25.7446 66.3191C25.4608 67.5136 25.2139 68.6842 25.0067 69.8259C23.0416 80.6477 24.5762 89.2406 29.46 92.1859C34.5046 95.2276 42.9707 92.1011 51.2145 84.5663C51.8661 83.9707 52.52 83.3391 53.1751 82.677C54.0242 83.532 54.8719 84.3411 55.7152 85.1C63.7003 92.2849 71.5869 95.1862 76.4662 92.2326C81.5057 89.1822 83.1435 79.9514 81.0172 68.7206C80.8548 67.8628 80.6658 66.9865 80.4536 66.0947C81.0481 65.9109 81.6318 65.7212 82.2009 65.5239C92.9722 61.7924 99.9803 55.7599 99.9803 49.5902C99.9803 43.6738 93.4225 37.9523 83.2748 34.2996Z"
            fill="#53C1DE"></path>
        <path
            d="M80.9386 61.5405C80.4249 61.7183 79.8977 61.8902 79.3605 62.0569C78.1715 58.1207 76.5666 53.9352 74.6027 49.6109C76.4768 45.3895 78.0196 41.2575 79.1754 37.3469C80.1365 37.6378 81.0694 37.9445 81.9683 38.2682C90.6629 41.3978 95.9665 46.025 95.9665 49.5904C95.9665 53.3882 90.2388 58.3183 80.9386 61.5405ZM77.0797 69.5358C78.0199 74.502 78.1542 78.9919 77.5314 82.5019C76.9718 85.6558 75.8465 87.7586 74.455 88.6008C71.494 90.3929 65.1619 88.0634 58.3329 81.9189C57.55 81.2145 56.7615 80.4624 55.9704 79.6664C58.6179 76.6389 61.2638 73.1193 63.8462 69.2104C68.3883 68.789 72.6796 68.1 76.5711 67.1594C76.7628 67.9678 76.933 68.7607 77.0797 69.5358ZM38.0555 88.2911C35.1625 89.3594 32.8584 89.39 31.4656 88.5503C28.502 86.7629 27.2699 79.8636 28.9505 70.6088C29.143 69.549 29.3721 68.4602 29.6362 67.3474C33.4851 68.2373 37.7449 68.8776 42.2979 69.2636C44.8977 73.0885 47.62 76.6042 50.3635 79.6826C49.7641 80.2877 49.167 80.8637 48.5733 81.4065C44.9279 84.7383 41.2749 87.1022 38.0555 88.2911ZM24.5024 61.5172C19.9209 59.8799 16.1374 57.7519 13.544 55.4298C11.2137 53.3431 10.0371 51.2714 10.0371 49.5904C10.0371 46.0131 15.1378 41.4503 23.6449 38.3489C24.6771 37.9726 25.7577 37.618 26.879 37.2849C28.0547 41.2838 29.597 45.4647 31.4583 49.6925C29.573 53.9831 28.0088 58.2307 26.8215 62.2765C26.0221 62.0362 25.2476 61.7834 24.5024 61.5172ZM29.0455 29.1821C27.2797 19.7465 28.4524 12.6286 31.4034 10.8425C34.5467 8.93977 41.4975 11.6527 48.8233 18.4542C49.2916 18.889 49.7617 19.344 50.2332 19.8147C47.5033 22.8797 44.8059 26.369 42.2292 30.1714C37.8103 30.5996 33.5804 31.2875 29.6914 32.2088C29.4469 31.1804 29.2303 30.17 29.0455 29.1821ZM69.5742 39.6461C68.6445 37.967 67.6901 36.3276 66.7171 34.733C69.7149 35.1293 72.5871 35.6553 75.2844 36.299C74.4746 39.0126 73.4653 41.8498 72.2772 44.7584C71.4249 43.0666 70.5235 41.3607 69.5742 39.6461ZM53.0467 22.8141C54.8981 24.9113 56.7521 27.2528 58.5757 29.7933C56.7381 29.7025 54.8777 29.6553 53.0019 29.6553C51.1438 29.6553 49.2971 29.7015 47.4709 29.7907C49.2963 27.2738 51.1664 24.9354 53.0467 22.8141ZM36.4133 39.6752C35.4846 41.359 34.5999 43.0556 33.761 44.7553C32.5922 41.8568 31.5922 39.0066 30.7754 36.2545C33.4562 35.6273 36.3148 35.1144 39.2936 34.7257C38.3068 36.335 37.3445 37.9864 36.4133 39.6748V39.6752ZM39.3794 64.7546C36.3018 64.3956 33.4001 63.9091 30.7201 63.2991C31.5499 60.4979 32.5719 57.5868 33.7656 54.626C34.6066 56.3245 35.4948 58.0218 36.4292 59.7092H36.4294C37.3812 61.4284 38.3672 63.1124 39.3794 64.7546ZM53.1577 76.6627C51.2554 74.5165 49.3578 72.1425 47.5046 69.5888C49.3037 69.6626 51.1378 69.7004 53.0019 69.7004C54.917 69.7004 56.8102 69.6553 58.6736 69.5685C56.8439 72.1682 54.9966 74.5459 53.1577 76.6627ZM72.3155 54.4751C73.5713 57.4679 74.6299 60.3638 75.4705 63.1173C72.7463 63.7671 69.805 64.2905 66.706 64.6794C67.6814 63.0632 68.6442 61.3957 69.5903 59.6804C70.5474 57.945 71.4562 56.207 72.3155 54.4751ZM66.1135 57.5837C64.6448 60.2464 63.1369 62.7883 61.6061 65.1877C58.8181 65.3962 55.9376 65.5035 53.0019 65.5035C50.078 65.5035 47.2339 65.4086 44.4951 65.2227C42.9026 62.7918 41.362 60.2424 39.9027 57.6066H39.903C38.4475 54.978 37.1079 52.3271 35.894 49.6912C37.1075 47.049 38.4436 44.3952 39.8908 41.7713L39.8905 41.7718C41.3414 39.1409 42.8685 36.6039 44.4463 34.1883C47.2406 33.9674 50.1059 33.8522 53.0017 33.8522H53.0019C55.9107 33.8522 58.7798 33.9683 61.5732 34.1911C63.1269 36.5891 64.6436 39.1178 66.1003 41.7491C67.5735 44.4099 68.9268 47.0461 70.1507 49.6315C68.9305 52.2614 67.5802 54.9241 66.1135 57.5837ZM74.3935 10.7177C77.5398 12.6148 78.7633 20.2661 76.7865 30.2992C76.6604 30.9394 76.5184 31.5915 76.3642 32.2523C72.4662 31.3119 68.2333 30.612 63.8015 30.1773C61.2198 26.3331 58.5444 22.8384 55.859 19.8128C56.581 19.0866 57.302 18.3941 58.02 17.7406C64.9565 11.4287 71.4396 8.93662 74.3935 10.7177Z"
            fill="white"></path>
        <path
            d="M53.0033 40.8179C57.6369 40.8179 61.3933 44.7454 61.3933 49.5905C61.3933 54.4355 57.6369 58.3632 53.0033 58.3632C48.3697 58.3632 44.6133 54.4355 44.6133 49.5905C44.6133 44.7454 48.3697 40.8179 53.0033 40.8179Z"
            fill="#53C1DE"></path>
    </symbol>
    <symbol xmlns="http://www.w3.org/2000/svg" preserveAspectRatio="xMidYMid" viewBox="0 0 256 244" id="redux">
        <path fill="#764ABC"
            d="M177.381 169.733c9.447-.978 16.614-9.122 16.288-18.896-.325-9.773-8.47-17.592-18.243-17.592h-.651c-10.1.326-17.918 8.796-17.592 18.895.326 4.887 2.28 9.122 5.212 12.054-11.076 21.828-28.016 37.791-53.426 51.148-17.266 9.122-35.183 12.38-53.1 10.1-14.66-1.955-26.062-8.47-33.23-19.222-10.424-15.963-11.401-33.23-2.605-50.496 6.19-12.38 15.962-21.502 22.152-26.063-1.303-4.235-3.258-11.402-4.235-16.614-47.237 34.207-42.35 80.468-28.016 102.295 10.75 16.29 32.577 26.389 56.684 26.389 6.515 0 13.03-.652 19.546-2.28 41.699-8.145 73.299-32.905 91.216-69.718zm57.336-40.397c-24.759-28.995-61.245-44.958-102.944-44.958h-5.212c-2.932-5.864-9.122-9.774-15.963-9.774h-.652C99.848 74.93 92.03 83.4 92.355 93.5c.326 9.773 8.47 17.592 18.243 17.592h.651c7.167-.326 13.357-4.887 15.963-11.077h5.864c24.759 0 48.214 7.167 69.39 21.176 16.288 10.751 28.016 24.76 34.531 41.7 5.538 13.683 5.212 27.04-.652 38.443-9.121 17.266-24.432 26.714-44.63 26.714-13.031 0-25.41-3.91-31.926-6.842-3.583 3.258-10.099 8.47-14.66 11.729 14.009 6.515 28.343 10.099 42.025 10.099 31.274 0 54.404-17.267 63.2-34.533 9.447-18.896 8.795-51.474-15.637-79.165zM69.225 175.27c.326 9.774 8.47 17.592 18.243 17.592h.652c10.099-.325 17.917-8.796 17.591-18.895-.325-9.774-8.47-17.592-18.243-17.592h-.651c-.652 0-1.63 0-2.28.325-13.357-22.153-18.895-46.26-16.94-72.323 1.302-19.547 7.818-36.488 19.22-50.497 9.447-12.054 27.69-17.918 40.07-18.243 34.531-.652 49.19 42.351 50.168 59.618 4.235.977 11.402 3.258 16.289 4.887C189.434 27.366 156.857 0 125.584 0c-29.32 0-56.359 21.176-67.11 52.451-14.985 41.7-5.212 81.771 13.031 113.372-1.628 2.28-2.606 5.864-2.28 9.448z">
        </path>
    </symbol>
    <symbol fill="none" xmlns="http://www.w3.org/2000/svg" viewBox="0 0 128 100" id="sass">
        <path
            d="M109.974 57.4487C105.547 57.475 101.713 58.5946 98.4977 60.2615C97.3105 57.7875 96.1233 55.6258 95.9257 54.0115C95.7031 52.1365 95.431 50.9904 95.7031 48.7511C95.9749 46.5112 97.2116 43.3341 97.2116 43.0737C97.1866 42.8393 96.9393 41.6935 94.392 41.6675C91.8447 41.6414 89.6432 42.1883 89.3959 42.8914C89.1485 43.5946 88.6539 45.2091 88.3323 46.8758C87.8871 49.3237 83.2373 57.9956 80.5908 62.5529C79.7252 60.782 78.9832 59.2196 78.8345 57.9693C78.6122 56.0946 78.3399 54.9485 78.6122 52.7091C78.8842 50.4693 80.1209 47.2925 80.1209 47.0321C80.0962 46.7977 79.8488 45.6518 77.3016 45.6258C74.7538 45.5998 72.5528 46.1466 72.3055 46.8498C72.0581 47.5529 71.7861 49.2196 71.2419 50.8341C70.7223 52.4487 64.539 66.9279 62.9313 70.7039C62.1151 72.631 61.3981 74.1675 60.8785 75.2091C60.3591 76.2508 60.8537 75.2873 60.8043 75.3914C60.3591 76.2768 60.1117 76.7716 60.1117 76.7716V76.7979C59.7655 77.449 59.3945 78.0737 59.2211 78.0737C59.0974 78.0737 58.8501 76.3289 59.2705 73.9333C60.1857 68.9071 62.4117 61.0688 62.3872 60.7823C62.3872 60.6521 62.8074 59.2716 60.9524 58.5688C59.1469 57.8656 58.5041 59.0375 58.3554 59.0375C58.207 59.0375 58.0834 59.4542 58.0834 59.4542C58.0834 59.4542 60.0867 50.6263 54.2497 50.6263C50.5892 50.6263 45.5436 54.819 43.0456 58.6472C41.4626 59.5586 38.0989 61.4854 34.5373 63.543C33.177 64.3242 31.7672 65.1576 30.4316 65.9128L30.1598 65.5998C23.0861 57.6571 10.0022 52.0321 10.5463 41.355C10.7442 37.4748 12.0303 27.2404 35.6755 14.8446C55.0417 4.68832 70.5494 7.47477 73.2451 13.6727C77.0787 22.5269 64.9594 38.9852 44.8268 41.355C37.1595 42.2664 33.1278 39.1414 32.114 37.9696C31.0504 36.7456 30.902 36.6935 30.5063 36.9279C29.8632 37.2925 30.259 38.3862 30.5063 39.0373C31.0999 40.6779 33.5732 43.5946 37.7779 45.0529C41.4629 46.3289 50.466 47.0321 61.3486 42.605C73.5421 37.631 83.0644 23.8289 80.2696 12.2925C77.4252 0.547694 58.9248 -3.30647 41.4384 3.22998C31.0255 7.13623 19.7471 13.23 11.6346 21.2248C1.98864 30.7039 0.45518 38.9852 1.09824 42.4227C3.34921 54.6883 19.4008 62.6831 25.8315 68.5946C25.5099 68.7766 25.2131 68.9589 24.9411 69.1154C21.7258 70.7818 9.48281 77.5268 6.41589 84.662C2.95324 92.7349 6.96002 98.5425 9.63121 99.3237C17.8921 101.746 26.3509 97.3966 30.9265 90.2352C35.4772 83.0737 34.9333 73.7768 32.831 69.5321L32.7565 69.3758L35.2793 67.8133C36.912 66.7977 38.5196 65.8602 39.9292 65.0526C39.138 67.3182 38.5688 70.0005 38.2723 73.9068C37.926 78.4904 39.7068 84.4276 42.0565 86.7714C43.0953 87.7867 44.3319 87.813 45.0987 87.813C47.8193 87.813 49.056 85.443 50.4163 82.6047C52.0982 79.1412 53.5822 75.1307 53.5822 75.1307C53.5822 75.1307 51.7272 85.9901 56.7975 85.9901C58.6525 85.9901 60.5075 83.4641 61.3484 82.162V82.188C61.3484 82.188 61.3979 82.1099 61.4968 81.9276C61.6006 81.7661 61.6995 81.6011 61.7936 81.4331V81.381C62.5356 80.0268 64.1927 76.9279 66.666 71.7977C69.8564 65.1831 72.9235 56.9018 72.9235 56.9018C72.9235 56.9018 73.2203 58.9331 74.1355 62.2664C74.6794 64.2458 75.8665 66.4071 76.7817 68.5164C76.0397 69.6102 75.5945 70.2354 75.5945 70.2354L75.6192 70.2615C75.0259 71.0948 74.3578 71.9805 73.6655 72.8656C71.1427 76.0427 68.1253 79.6628 67.7296 80.7044C67.2596 81.9281 67.3586 82.8396 68.2737 83.569C68.9415 84.0899 70.1287 84.1938 71.3901 84.0899C73.6655 83.9333 75.2485 83.3347 76.0399 82.9698C77.2766 82.5011 78.6864 81.7979 80.0467 80.7563C82.52 78.8294 84.0288 76.0951 83.8804 72.4492C83.8062 70.444 83.1878 68.4649 82.4211 66.5899C82.6437 66.2513 82.8665 65.9125 83.0889 65.5482C86.9967 59.5323 90.0142 52.918 90.0142 52.918C90.0142 52.918 90.311 54.9492 91.2261 58.2826C91.6958 59.9753 92.6359 61.8245 93.4769 63.6474C89.8163 66.7985 87.5161 70.4443 86.7247 72.8401C85.2654 77.2672 86.4032 79.2724 88.5549 79.7412C89.5193 79.9495 90.9046 79.4808 91.9431 79.012C93.2293 78.5693 94.7875 77.8138 96.2222 76.6943C98.6956 74.7672 101.07 72.0849 100.946 68.4651C100.872 66.7985 100.452 65.1578 99.8828 63.5953C102.999 62.2412 107.03 61.4599 112.15 62.111C123.157 63.4651 125.333 70.7047 124.913 73.7255C124.493 76.7466 122.192 78.413 121.425 78.9339C120.659 79.4287 120.411 79.6112 120.486 79.9755C120.584 80.5227 120.931 80.4964 121.599 80.3925C122.514 80.236 127.386 77.9185 127.584 72.3458C127.881 65.1833 121.425 57.3709 109.974 57.4487ZM25.0895 87.5789C21.4537 91.7716 16.3339 93.3602 14.1574 92.006C11.8077 90.5737 12.7226 84.4018 17.1996 79.9487C19.9202 77.2404 23.4571 74.7404 25.782 73.2039C26.3014 72.8654 27.0929 72.3709 28.0327 71.7716C28.1811 71.6677 28.2801 71.6154 28.2801 71.6154C28.4532 71.5112 28.6511 71.381 28.8489 71.2508C30.5061 77.605 28.9231 83.1779 25.0895 87.5789ZM51.6777 68.5425C50.4163 71.7977 47.7451 80.1571 46.1375 79.6883C44.7521 79.2977 43.9115 72.9696 45.8651 66.7196C46.8545 63.5682 48.9568 59.8185 50.1935 58.3599C52.1971 56.0162 54.3734 55.2349 54.9177 56.1985C55.5608 57.4487 52.4692 66.5112 51.6777 68.5425ZM73.6161 79.5841C73.0719 79.8708 72.5773 80.0789 72.3547 79.9229C72.1815 79.8188 72.577 79.4281 72.577 79.4281C72.577 79.4281 75.3224 76.3292 76.4107 74.8969C77.029 74.0638 77.771 73.1003 78.5625 72.0063V72.3188C78.5627 76.0685 75.1495 78.5685 73.6161 79.5841ZM90.5333 75.5216C90.1376 75.2091 90.1873 74.2456 91.5227 71.2248C92.0423 70.0268 93.2293 68.0216 95.2821 66.1206C95.5295 66.9018 95.6781 67.6568 95.6531 68.3602C95.6286 73.0477 92.4628 74.7925 90.5333 75.5216Z"
            fill="#CF649A"></path>
    </symbol>
    <symbol fill="none" xmlns="http://www.w3.org/2000/svg" viewBox="0 0 100 100" id="ts">
        <path d="M0 50V100H50H100V50V0H50H0V50Z" fill="#007ACC"></path>
        <path
            d="M22.1132 50.3318L22.0815 54.427L28.5894 54.427H35.0974V72.9191V91.4111H39.7005H44.3037V72.9191L44.3037 54.427H50.8116H57.3196V50.4111C57.3196 48.1889 57.272 46.3318 57.2085 46.2841C57.1608 46.2207 49.2402 46.1889 39.637 46.2048L22.1609 46.2524L22.1132 50.3318Z"
            fill="white"></path>
        <path
            d="M80.6906 46.1362C83.2302 46.7711 85.1668 47.8981 86.9445 49.7393C87.8652 50.7235 89.2302 52.5171 89.3414 52.9457C89.3731 53.0727 85.0239 55.9933 82.389 57.6282C82.2937 57.6917 81.9128 57.279 81.4842 56.6441C80.1985 54.7711 78.8493 53.9616 76.7858 53.8187C73.754 53.6124 71.8017 55.1997 71.8175 57.8505C71.8175 58.6282 71.9287 59.0886 72.2461 59.7235C72.9128 61.1044 74.1509 61.9298 78.0398 63.6124C85.1985 66.6917 88.262 68.7235 90.1668 71.6124C92.2937 74.8346 92.7699 79.9774 91.3255 83.8028C89.7382 87.9616 85.8017 90.787 80.262 91.7235C78.5477 92.0251 74.4842 91.9774 72.6429 91.6441C68.6271 90.9298 64.8175 88.9457 62.4683 86.3425C61.5477 85.3266 59.7541 82.6759 59.8652 82.4854C59.9128 82.4219 60.3255 82.1679 60.7858 81.8981C61.2302 81.6441 62.9128 80.6759 64.5001 79.7552L67.3731 78.0885L67.9763 78.9774C68.8175 80.2631 70.6588 82.0251 71.7699 82.6124C74.9604 84.2949 79.3414 84.0568 81.5001 82.1203C82.4207 81.279 82.8017 80.406 82.8017 79.1203C82.8017 77.9616 82.6588 77.4536 82.0556 76.5806C81.2779 75.4695 79.6906 74.533 75.1826 72.5806C70.0239 70.3584 67.8017 68.9774 65.7699 66.787C64.5953 65.5171 63.4842 63.4854 63.0239 61.787C62.6429 60.3743 62.5477 56.8346 62.8493 55.406C63.9128 50.4219 67.6747 46.9457 73.1033 45.9139C74.8652 45.5806 78.9604 45.7076 80.6906 46.1362Z"
            fill="white"></path>
    </symbol>

    <symbol xmlns="http://www.w3.org/2000/svg" viewBox="0 0 512 512" id="next">
        <path
            d="m386.3985596 35.5079727c-169.3385315-99.5687332-384.5140285 22.0419274-386.3862926 218.3738175-1.8282685 191.716507 201.0625916 315.5454712 370.0206604 231.1632233l-184.4725331-271.408722.0000305 167.9969177c0 18.6138916-35.6191101 18.6138916-35.6191101 0v-225.2124176c0-14.7758484 27.4472504-15.9884033 35.2252045-3.1443481l210.2631683 317.2959595c157.9509888-101.737259 155.8170166-338.1359864-9.0311279-435.0644303zm-23.7556153 317.9385605-35.7316284-54.5765381v-149.4116669c0-13.9324646 35.7316284-13.9324646 35.7316284 0z" />
    </symbol>


    <symbol xmlns="http://www.w3.org/2000/svg" viewBox="0 0 128 128" id="webpack">
        <path fill="#8ed6fb"
            d="M117.29,98.1,66.24,127V104.49L98,87,117.29,98.1Zm3.5-3.16V34.55L102.11,45.35V84.16l18.67,10.77ZM10.71,98.1l51,28.88V104.49L29.94,87Zm-3.5-3.16V34.55L25.89,45.35V84.16Zm2.19-64.3L61.76,1V22.76L28.21,41.21l-.27.15Zm109.18,0L66.24,1V22.76L99.79,41.2l.27.15,18.54-10.71Z">
        </path>
        <path fill="#1c78c0"
            d="M61.76,99.37,30.37,82.1V47.92L61.76,66Zm4.48,0L97.63,82.12V47.92L66.24,66ZM32.5,44,64,26.66,95.5,44,64,62.16,32.5,44Z">
        </path>
    </symbol>

    <symbol xmlns="http://www.w3.org/2000/svg" preserveAspectRatio="xMinYMin meet" viewBox="0 0 256 282" id="nodejs">
        <g fill="#8CC84B">
            <path
                d="M116.504 3.58c6.962-3.985 16.03-4.003 22.986 0 34.995 19.774 70.001 39.517 104.99 59.303 6.581 3.707 10.983 11.031 10.916 18.614v118.968c.049 7.897-4.788 15.396-11.731 19.019-34.88 19.665-69.742 39.354-104.616 59.019-7.106 4.063-16.356 3.75-23.24-.646-10.457-6.062-20.932-12.094-31.39-18.15-2.137-1.274-4.546-2.288-6.055-4.36 1.334-1.798 3.719-2.022 5.657-2.807 4.365-1.388 8.374-3.616 12.384-5.778 1.014-.694 2.252-.428 3.224.193 8.942 5.127 17.805 10.403 26.777 15.481 1.914 1.105 3.852-.362 5.488-1.274 34.228-19.345 68.498-38.617 102.72-57.968 1.268-.61 1.969-1.956 1.866-3.345.024-39.245.006-78.497.012-117.742.145-1.576-.767-3.025-2.192-3.67-34.759-19.575-69.5-39.18-104.253-58.76a3.621 3.621 0 0 0-4.094-.006C91.2 39.257 56.465 58.88 21.712 78.454c-1.42.646-2.373 2.071-2.204 3.653.006 39.245 0 78.497 0 117.748a3.329 3.329 0 0 0 1.89 3.303c9.274 5.259 18.56 10.481 27.84 15.722 5.228 2.814 11.647 4.486 17.407 2.33 5.083-1.823 8.646-7.01 8.549-12.407.048-39.016-.024-78.038.036-117.048-.127-1.732 1.516-3.163 3.2-3 4.456-.03 8.918-.06 13.374.012 1.86-.042 3.14 1.823 2.91 3.568-.018 39.263.048 78.527-.03 117.79.012 10.464-4.287 21.85-13.966 26.97-11.924 6.177-26.662 4.867-38.442-1.056-10.198-5.09-19.93-11.097-29.947-16.55C5.368 215.886.555 208.357.604 200.466V81.497c-.073-7.74 4.504-15.197 11.29-18.85C46.768 42.966 81.636 23.27 116.504 3.58z">
            </path>
            <path
                d="M146.928 85.99c15.21-.979 31.493-.58 45.18 6.913 10.597 5.742 16.472 17.793 16.659 29.566-.296 1.588-1.956 2.464-3.472 2.355-4.413-.006-8.827.06-13.24-.03-1.872.072-2.96-1.654-3.195-3.309-1.268-5.633-4.34-11.212-9.642-13.929-8.139-4.075-17.576-3.87-26.451-3.785-6.479.344-13.446.905-18.935 4.715-4.214 2.886-5.494 8.712-3.99 13.404 1.418 3.369 5.307 4.456 8.489 5.458 18.33 4.794 37.754 4.317 55.734 10.626 7.444 2.572 14.726 7.572 17.274 15.366 3.333 10.446 1.872 22.932-5.56 31.318-6.027 6.901-14.805 10.657-23.56 12.697-11.647 2.597-23.734 2.663-35.562 1.51-11.122-1.268-22.696-4.19-31.282-11.768-7.342-6.375-10.928-16.308-10.572-25.895.085-1.619 1.697-2.748 3.248-2.615 4.444-.036 8.888-.048 13.332.006 1.775-.127 3.091 1.407 3.182 3.08.82 5.367 2.837 11 7.517 14.182 9.032 5.827 20.365 5.428 30.707 5.591 8.568-.38 18.186-.495 25.178-6.158 3.689-3.23 4.782-8.634 3.785-13.283-1.08-3.925-5.186-5.754-8.712-6.95-18.095-5.724-37.736-3.647-55.656-10.12-7.275-2.571-14.31-7.432-17.105-14.906-3.9-10.578-2.113-23.662 6.098-31.765 8.006-8.06 19.563-11.164 30.551-12.275z">
            </path>
        </g>
    </symbol>

    <symbol xmlns="http://www.w3.org/2000/svg" viewBox="0 0 128 128" id="express">
        <path
            d="M126.67 98.44c-4.56 1.16-7.38.05-9.91-3.75-5.68-8.51-11.95-16.63-18-24.9-.78-1.07-1.59-2.12-2.6-3.45C89 76 81.85 85.2 75.14 94.77c-2.4 3.42-4.92 4.91-9.4 3.7L92.66 62.34 67.6 29.71c4.31-.84 7.29-.41 9.93 3.45 5.83 8.52 12.26 16.63 18.67 25.21C102.65 49.82 109 41.7 115 33.26c2.41-3.42 5-4.72 9.33-3.46-3.28 4.35-6.49 8.63-9.72 12.88-4.36 5.73-8.64 11.53-13.16 17.14-1.61 2-1.35 3.3.09 5.19C109.9 76 118.16 87.1 126.67 98.44zM1.33 61.74c.72-3.61 1.2-7.29 2.2-10.83 6-21.43 30.6-30.34 47.5-17.06C60.93 41.64 63.39 52.62 62.9 65H7.1c-.84 22.21 15.15 35.62 35.53 28.78 7.15-2.4 11.36-8 13.47-15 1.07-3.51 2.84-4.06 6.14-3.06-1.69 8.76-5.52 16.08-13.52 20.66-12 6.86-29.13 4.64-38.14-4.89C5.26 85.89 3 78.92 2 71.39c-.15-1.2-.46-2.38-.7-3.57Q1.33 64.78 1.33 61.74zM7.2 60.25H57.63c-.33-16.06-10.33-27.47-24-27.57C18.63 32.56 7.85 43.7 7.2 60.25z">
        </path>
    </symbol>


    <symbol xmlns="http://www.w3.org/2000/svg" viewBox="0 0 128 128" id="mongodb">
        <path fill="#439934" fill-rule="evenodd"
            d="M88.038 42.812c1.605 4.643 2.761 9.383 3.141 14.296.472 6.095.256 12.147-1.029 18.142-.035.165-.109.32-.164.48-.403.001-.814-.049-1.208.012-3.329.523-6.655 1.065-9.981 1.604-3.438.557-6.881 1.092-10.313 1.687-1.216.21-2.721-.041-3.212 1.641-.014.046-.154.054-.235.08l.166-10.051c-.057-8.084-.113-16.168-.169-24.252l1.602-.275c2.62-.429 5.24-.864 7.862-1.281 3.129-.497 6.261-.98 9.392-1.465 1.381-.215 2.764-.412 4.148-.618z"
            clip-rule="evenodd"></path>
        <path fill="#45A538" fill-rule="evenodd"
            d="M61.729 110.054c-1.69-1.453-3.439-2.842-5.059-4.37-8.717-8.222-15.093-17.899-18.233-29.566-.865-3.211-1.442-6.474-1.627-9.792-.13-2.322-.318-4.665-.154-6.975.437-6.144 1.325-12.229 3.127-18.147l.099-.138c.175.233.427.439.516.702 1.759 5.18 3.505 10.364 5.242 15.551 5.458 16.3 10.909 32.604 16.376 48.9.107.318.384.579.583.866l-.87 2.969z"
            clip-rule="evenodd"></path>
        <path fill="#46A037" fill-rule="evenodd"
            d="M88.038 42.812c-1.384.206-2.768.403-4.149.616-3.131.485-6.263.968-9.392 1.465-2.622.417-5.242.852-7.862 1.281l-1.602.275-.012-1.045c-.053-.859-.144-1.717-.154-2.576-.069-5.478-.112-10.956-.18-16.434-.042-3.429-.105-6.857-.175-10.285-.043-2.13-.089-4.261-.185-6.388-.052-1.143-.236-2.28-.311-3.423-.042-.657.016-1.319.029-1.979.817 1.583 1.616 3.178 2.456 4.749 1.327 2.484 3.441 4.314 5.344 6.311 7.523 7.892 12.864 17.068 16.193 27.433z"
            clip-rule="evenodd"></path>
        <path fill="#409433" fill-rule="evenodd"
            d="M65.036 80.753c.081-.026.222-.034.235-.08.491-1.682 1.996-1.431 3.212-1.641 3.432-.594 6.875-1.13 10.313-1.687 3.326-.539 6.652-1.081 9.981-1.604.394-.062.805-.011 1.208-.012-.622 2.22-1.112 4.488-1.901 6.647-.896 2.449-1.98 4.839-3.131 7.182-1.72 3.503-3.863 6.77-6.353 9.763-1.919 2.308-4.058 4.441-6.202 6.548-1.185 1.165-2.582 2.114-3.882 3.161l-.337-.23-1.214-1.038-1.256-2.753c-.865-3.223-1.319-6.504-1.394-9.838l.023-.561.171-2.426c.057-.828.133-1.655.168-2.485.129-2.982.241-5.964.359-8.946z"
            clip-rule="evenodd"></path>
        <path fill="#4FAA41" fill-rule="evenodd"
            d="M65.036 80.753c-.118 2.982-.23 5.964-.357 8.947-.035.83-.111 1.657-.168 2.485l-.765.289c-1.699-5.002-3.399-9.951-5.062-14.913-2.75-8.209-5.467-16.431-8.213-24.642-2.217-6.628-4.452-13.249-6.7-19.867-.105-.31-.407-.552-.617-.826l4.896-9.002c.168.292.39.565.496.879 2.265 6.703 4.526 13.407 6.768 20.118 2.916 8.73 5.814 17.467 8.728 26.198.116.349.308.671.491 1.062l.67-.78c-.056 3.351-.112 6.701-.167 10.052z"
            clip-rule="evenodd"></path>
        <path fill="#4AA73C" fill-rule="evenodd"
            d="M43.155 32.227c.21.274.511.516.617.826 2.248 6.618 4.483 13.239 6.7 19.867 2.746 8.211 5.463 16.433 8.213 24.642 1.662 4.961 3.362 9.911 5.062 14.913l.765-.289-.171 2.426-.155.559c-.266 2.656-.49 5.318-.814 7.968-.163 1.328-.509 2.632-.772 3.947-.198-.287-.476-.548-.583-.866-5.467-16.297-10.918-32.6-16.376-48.9-1.737-5.187-3.483-10.371-5.242-15.551-.089-.263-.34-.469-.516-.702 1.09-2.947 2.181-5.894 3.272-8.84z"
            clip-rule="evenodd"></path>
        <path fill="#57AE47" fill-rule="evenodd"
            d="M65.202 70.702l-.67.78c-.183-.391-.375-.714-.491-1.062-2.913-8.731-5.812-17.468-8.728-26.198-2.242-6.711-4.503-13.415-6.768-20.118-.105-.314-.327-.588-.496-.879l6.055-7.965c.191.255.463.482.562.769 1.681 4.921 3.347 9.848 5.003 14.778 1.547 4.604 3.071 9.215 4.636 13.813.105.308.47.526.714.786l.012 1.045c.058 8.082.115 16.167.171 24.251z"
            clip-rule="evenodd"></path>
        <path fill="#60B24F" fill-rule="evenodd"
            d="M65.021 45.404c-.244-.26-.609-.478-.714-.786-1.565-4.598-3.089-9.209-4.636-13.813-1.656-4.93-3.322-9.856-5.003-14.778-.099-.287-.371-.514-.562-.769 1.969-1.928 3.877-3.925 5.925-5.764 1.821-1.634 3.285-3.386 3.352-5.968.003-.107.059-.214.145-.514l.519 1.306c-.013.661-.072 1.322-.029 1.979.075 1.143.259 2.28.311 3.423.096 2.127.142 4.258.185 6.388.069 3.428.132 6.856.175 10.285.067 5.478.111 10.956.18 16.434.008.861.098 1.718.152 2.577z"
            clip-rule="evenodd"></path>
        <path fill="#A9AA88" fill-rule="evenodd"
            d="M62.598 107.085c.263-1.315.609-2.62.772-3.947.325-2.649.548-5.312.814-7.968l.066-.01.066.011c.075 3.334.529 6.615 1.394 9.838-.176.232-.425.439-.518.701-.727 2.05-1.412 4.116-2.143 6.166-.1.28-.378.498-.574.744l-.747-2.566.87-2.969z"
            clip-rule="evenodd"></path>
        <path fill="#B6B598" fill-rule="evenodd"
            d="M62.476 112.621c.196-.246.475-.464.574-.744.731-2.05 1.417-4.115 2.143-6.166.093-.262.341-.469.518-.701l1.255 2.754c-.248.352-.59.669-.728 1.061l-2.404 7.059c-.099.283-.437.483-.663.722l-.695-3.985z"
            clip-rule="evenodd"></path>
        <path fill="#C2C1A7" fill-rule="evenodd"
            d="M63.171 116.605c.227-.238.564-.439.663-.722l2.404-7.059c.137-.391.48-.709.728-1.061l1.215 1.037c-.587.58-.913 1.25-.717 2.097l-.369 1.208c-.168.207-.411.387-.494.624-.839 2.403-1.64 4.819-2.485 7.222-.107.305-.404.544-.614.812-.109-1.387-.22-2.771-.331-4.158z"
            clip-rule="evenodd"></path>
        <path fill="#CECDB7" fill-rule="evenodd"
            d="M63.503 120.763c.209-.269.506-.508.614-.812.845-2.402 1.646-4.818 2.485-7.222.083-.236.325-.417.494-.624l-.509 5.545c-.136.157-.333.294-.398.477-.575 1.614-1.117 3.24-1.694 4.854-.119.333-.347.627-.525.938-.158-.207-.441-.407-.454-.623-.051-.841-.016-1.688-.013-2.533z"
            clip-rule="evenodd"></path>
        <path fill="#DBDAC7" fill-rule="evenodd"
            d="M63.969 123.919c.178-.312.406-.606.525-.938.578-1.613 1.119-3.239 1.694-4.854.065-.183.263-.319.398-.477l.012 3.64-1.218 3.124-1.411-.495z"
            clip-rule="evenodd"></path>
        <path fill="#EBE9DC" fill-rule="evenodd" d="M65.38 124.415l1.218-3.124.251 3.696-1.469-.572z"
            clip-rule="evenodd"></path>
        <path fill="#CECDB7" fill-rule="evenodd" d="M67.464 110.898c-.196-.847.129-1.518.717-2.097l.337.23-1.054 1.867z"
            clip-rule="evenodd"></path>
        <path fill="#4FAA41" fill-rule="evenodd" d="M64.316 95.172l-.066-.011-.066.01.155-.559-.023.56z"
            clip-rule="evenodd"></path>
    </symbol>

    <symbol xmlns="http://www.w3.org/2000/svg" preserveAspectRatio="xMinYMin meet" viewBox="0 0 256 264"
        id="postgresql">
        <path
            d="M255.008 158.086c-1.535-4.649-5.556-7.887-10.756-8.664-2.452-.366-5.26-.21-8.583.475-5.792 1.195-10.089 1.65-13.225 1.738 11.837-19.985 21.462-42.775 27.003-64.228 8.96-34.689 4.172-50.492-1.423-57.64C233.217 10.847 211.614.683 185.552.372c-13.903-.17-26.108 2.575-32.475 4.549-5.928-1.046-12.302-1.63-18.99-1.738-12.537-.2-23.614 2.533-33.079 8.15-5.24-1.772-13.65-4.27-23.362-5.864-22.842-3.75-41.252-.828-54.718 8.685C6.622 25.672-.937 45.684.461 73.634c.444 8.874 5.408 35.874 13.224 61.48 4.492 14.718 9.282 26.94 14.237 36.33 7.027 13.315 14.546 21.156 22.987 23.972 4.731 1.576 13.327 2.68 22.368-4.85 1.146 1.388 2.675 2.767 4.704 4.048 2.577 1.625 5.728 2.953 8.875 3.74 11.341 2.835 21.964 2.126 31.027-1.848.056 1.612.099 3.152.135 4.482.06 2.157.12 4.272.199 6.25.537 13.374 1.447 23.773 4.143 31.049.148.4.347 1.01.557 1.657 1.345 4.118 3.594 11.012 9.316 16.411 5.925 5.593 13.092 7.308 19.656 7.308 3.292 0 6.433-.432 9.188-1.022 9.82-2.105 20.973-5.311 29.041-16.799 7.628-10.86 11.336-27.217 12.007-52.99.087-.729.167-1.425.244-2.088l.16-1.362 1.797.158.463.031c10.002.456 22.232-1.665 29.743-5.154 5.935-2.754 24.954-12.795 20.476-26.351">
        </path>
        <path fill="#336791"
            d="M237.906 160.722c-29.74 6.135-31.785-3.934-31.785-3.934 31.4-46.593 44.527-105.736 33.2-120.211-30.904-39.485-84.399-20.811-85.292-20.327l-.287.052c-5.876-1.22-12.451-1.946-19.842-2.067-13.456-.22-23.664 3.528-31.41 9.402 0 0-95.43-39.314-90.991 49.444.944 18.882 27.064 142.873 58.218 105.422 11.387-13.695 22.39-25.274 22.39-25.274 5.464 3.63 12.006 5.482 18.864 4.817l.533-.452c-.166 1.7-.09 3.363.213 5.332-8.026 8.967-5.667 10.541-21.711 13.844-16.235 3.346-6.698 9.302-.471 10.86 7.549 1.887 25.013 4.561 36.813-11.958l-.47 1.885c3.144 2.519 5.352 16.383 4.982 28.952-.37 12.568-.617 21.197 1.86 27.937 2.479 6.74 4.948 21.905 26.04 17.386 17.623-3.777 26.756-13.564 28.027-29.89.901-11.606 2.942-9.89 3.07-20.267l1.637-4.912c1.887-15.733.3-20.809 11.157-18.448l2.64.232c7.99.363 18.45-1.286 24.589-4.139 13.218-6.134 21.058-16.377 8.024-13.686h.002">
        </path>
        <path fill="#FFF"
            d="M108.076 81.525c-2.68-.373-5.107-.028-6.335.902-.69.523-.904 1.129-.962 1.546-.154 1.105.62 2.327 1.096 2.957 1.346 1.784 3.312 3.01 5.258 3.28.282.04.563.058.842.058 3.245 0 6.196-2.527 6.456-4.392.325-2.336-3.066-3.893-6.355-4.35M196.86 81.599c-.256-1.831-3.514-2.353-6.606-1.923-3.088.43-6.082 1.824-5.832 3.659.2 1.427 2.777 3.863 5.827 3.863.258 0 .518-.017.78-.054 2.036-.282 3.53-1.575 4.24-2.32 1.08-1.136 1.706-2.402 1.591-3.225">
        </path>
        <path fill="#FFF"
            d="M247.802 160.025c-1.134-3.429-4.784-4.532-10.848-3.28-18.005 3.716-24.453 1.142-26.57-.417 13.995-21.32 25.508-47.092 31.719-71.137 2.942-11.39 4.567-21.968 4.7-30.59.147-9.463-1.465-16.417-4.789-20.665-13.402-17.125-33.072-26.311-56.882-26.563-16.369-.184-30.199 4.005-32.88 5.183-5.646-1.404-11.801-2.266-18.502-2.376-12.288-.199-22.91 2.743-31.704 8.74-3.82-1.422-13.692-4.811-25.765-6.756-20.872-3.36-37.458-.814-49.294 7.571-14.123 10.006-20.643 27.892-19.38 53.16.425 8.501 5.269 34.653 12.913 59.698 10.062 32.964 21 51.625 32.508 55.464 1.347.449 2.9.763 4.613.763 4.198 0 9.345-1.892 14.7-8.33a529.832 529.832 0 0 1 20.261-22.926c4.524 2.428 9.494 3.784 14.577 3.92.01.133.023.266.035.398a117.66 117.66 0 0 0-2.57 3.175c-3.522 4.471-4.255 5.402-15.592 7.736-3.225.666-11.79 2.431-11.916 8.435-.136 6.56 10.125 9.315 11.294 9.607 4.074 1.02 7.999 1.523 11.742 1.523 9.103 0 17.114-2.992 23.516-8.781-.197 23.386.778 46.43 3.586 53.451 2.3 5.748 7.918 19.795 25.664 19.794 2.604 0 5.47-.303 8.623-.979 18.521-3.97 26.564-12.156 29.675-30.203 1.665-9.645 4.522-32.676 5.866-45.03 2.836.885 6.487 1.29 10.434 1.289 8.232 0 17.731-1.749 23.688-4.514 6.692-3.108 18.768-10.734 16.578-17.36zm-44.106-83.48c-.061 3.647-.563 6.958-1.095 10.414-.573 3.717-1.165 7.56-1.314 12.225-.147 4.54.42 9.26.968 13.825 1.108 9.22 2.245 18.712-2.156 28.078a36.508 36.508 0 0 1-1.95-4.009c-.547-1.326-1.735-3.456-3.38-6.404-6.399-11.476-21.384-38.35-13.713-49.316 2.285-3.264 8.084-6.62 22.64-4.813zm-17.644-61.787c21.334.471 38.21 8.452 50.158 23.72 9.164 11.711-.927 64.998-30.14 110.969a171.33 171.33 0 0 0-.886-1.117l-.37-.462c7.549-12.467 6.073-24.802 4.759-35.738-.54-4.488-1.05-8.727-.92-12.709.134-4.22.692-7.84 1.232-11.34.663-4.313 1.338-8.776 1.152-14.037.139-.552.195-1.204.122-1.978-.475-5.045-6.235-20.144-17.975-33.81-6.422-7.475-15.787-15.84-28.574-21.482 5.5-1.14 13.021-2.203 21.442-2.016zM66.674 175.778c-5.9 7.094-9.974 5.734-11.314 5.288-8.73-2.912-18.86-21.364-27.791-50.624-7.728-25.318-12.244-50.777-12.602-57.916-1.128-22.578 4.345-38.313 16.268-46.769 19.404-13.76 51.306-5.524 64.125-1.347-.184.182-.376.352-.558.537-21.036 21.244-20.537 57.54-20.485 59.759-.002.856.07 2.068.168 3.735.362 6.105 1.036 17.467-.764 30.334-1.672 11.957 2.014 23.66 10.111 32.109a36.275 36.275 0 0 0 2.617 2.468c-3.604 3.86-11.437 12.396-19.775 22.426zm22.479-29.993c-6.526-6.81-9.49-16.282-8.133-25.99 1.9-13.592 1.199-25.43.822-31.79-.053-.89-.1-1.67-.127-2.285 3.073-2.725 17.314-10.355 27.47-8.028 4.634 1.061 7.458 4.217 8.632 9.645 6.076 28.103.804 39.816-3.432 49.229-.873 1.939-1.698 3.772-2.402 5.668l-.546 1.466c-1.382 3.706-2.668 7.152-3.465 10.424-6.938-.02-13.687-2.984-18.819-8.34zm1.065 37.9c-2.026-.506-3.848-1.385-4.917-2.114.893-.42 2.482-.992 5.238-1.56 13.337-2.745 15.397-4.683 19.895-10.394 1.031-1.31 2.2-2.794 3.819-4.602l.002-.002c2.411-2.7 3.514-2.242 5.514-1.412 1.621.67 3.2 2.702 3.84 4.938.303 1.056.643 3.06-.47 4.62-9.396 13.156-23.088 12.987-32.921 10.526zm69.799 64.952c-16.316 3.496-22.093-4.829-25.9-14.346-2.457-6.144-3.665-33.85-2.808-64.447.011-.407-.047-.8-.159-1.17a15.444 15.444 0 0 0-.456-2.162c-1.274-4.452-4.379-8.176-8.104-9.72-1.48-.613-4.196-1.738-7.46-.903.696-2.868 1.903-6.107 3.212-9.614l.549-1.475c.618-1.663 1.394-3.386 2.214-5.21 4.433-9.848 10.504-23.337 3.915-53.81-2.468-11.414-10.71-16.988-23.204-15.693-7.49.775-14.343 3.797-17.761 5.53-.735.372-1.407.732-2.035 1.082.954-11.5 4.558-32.992 18.04-46.59 8.489-8.56 19.794-12.788 33.568-12.56 27.14.444 44.544 14.372 54.366 25.979 8.464 10.001 13.047 20.076 14.876 25.51-13.755-1.399-23.11 1.316-27.852 8.096-10.317 14.748 5.644 43.372 13.315 57.129 1.407 2.521 2.621 4.7 3.003 5.626 2.498 6.054 5.732 10.096 8.093 13.046.724.904 1.426 1.781 1.96 2.547-4.166 1.201-11.649 3.976-10.967 17.847-.55 6.96-4.461 39.546-6.448 51.059-2.623 15.21-8.22 20.875-23.957 24.25zm68.104-77.936c-4.26 1.977-11.389 3.46-18.161 3.779-7.48.35-11.288-.838-12.184-1.569-.42-8.644 2.797-9.547 6.202-10.503.535-.15 1.057-.297 1.561-.473.313.255.656.508 1.032.756 6.012 3.968 16.735 4.396 31.874 1.271l.166-.033c-2.042 1.909-5.536 4.471-10.49 6.772z">
        </path>
    </symbol>

    <symbol xmlns="http://www.w3.org/2000/svg" width="90" height="90" id="tailwind">
        <path
            d="M18.5 9.51a4.22 4.22 0 0 1-1.91-1.34A5.77 5.77 0 0 0 12 6a4.72 4.72 0 0 0-5 4 3.23 3.23 0 0 1 3.5-1.49 4.32 4.32 0 0 1 1.91 1.35A5.77 5.77 0 0 0 17 12a4.72 4.72 0 0 0 5-4 3.2 3.2 0 0 1-3.5 1.51zm-13 4.98a4.22 4.22 0 0 1 1.91 1.34A5.77 5.77 0 0 0 12 18a4.72 4.72 0 0 0 5-4 3.23 3.23 0 0 1-3.5 1.49 4.32 4.32 0 0 1-1.91-1.35A5.8 5.8 0 0 0 7 12a4.72 4.72 0 0 0-5 4 3.2 3.2 0 0 1 3.5-1.51z">
        </path>
    </symbol>

    <symbol id="jest" viewBox="-13.5 0 283 283" version="1.1" xmlns="http://www.w3.org/2000/svg"
        xmlns:xlink="http://www.w3.org/1999/xlink" preserveAspectRatio="xMidYMid">
        <g>
            <path
                d="M239.552674,138.960457 C239.552674,124.451866 227.791431,112.690623 213.282197,112.690623 C212.349305,112.690623 211.428604,112.740668 210.521375,112.835625 L246.60326,6.41597594 L93.2669594,6.41597594 L129.298799,112.743234 C128.770117,112.711154 128.238869,112.690623 127.702488,112.690623 C113.193897,112.690623 101.432012,124.451866 101.432012,138.960457 C101.432012,150.688337 109.117786,160.616517 119.725426,163.994562 C114.122939,173.699465 107.072994,182.440036 99.0689845,189.991715 C88.1854556,200.259304 75.7293554,208.044527 62.2569544,212.842442 C46.2174957,204.602322 38.6427188,186.27747 45.4777263,170.20978 C46.2489343,168.395324 47.0374657,166.556487 47.7900672,164.725349 C59.410799,162.013289 68.0692451,151.596207 68.0692451,139.149089 C68.0692451,124.640497 56.308002,112.879254 41.7987689,112.879254 C27.2901774,112.879254 15.5282927,124.640497 15.5282927,139.149089 C15.5282927,148.046212 19.9553604,155.904577 26.7217163,160.656938 C20.2197013,175.461309 10.6617263,190.954763 7.68404211,208.911976 C4.1154406,230.432658 7.67249323,253.276327 26.2854256,266.177059 C69.6334757,296.220808 116.687431,247.551936 166.299461,235.317831 C184.279771,230.883705 204.016152,231.598452 219.857355,222.423515 C231.753335,215.533329 239.595661,204.115344 241.821385,191.296096 C244.020162,178.632116 240.814709,166.023314 233.442679,155.799354 C237.255731,151.239475 239.552674,145.36944 239.552674,138.960457"
                fill="#99425B">

            </path>
            <path
                d="M235.500174,190.198183 C233.567663,201.327447 226.694159,211.049031 216.641508,216.871587 C207.270881,222.298915 196.041528,223.918965 184.152606,225.633331 C177.783403,226.551467 171.197337,227.501682 164.763332,229.088369 C147.751202,233.283176 131.273528,241.468118 115.338651,249.382945 C83.4490065,265.222865 55.908796,278.900579 29.9405153,260.903587 C10.9188812,247.719908 11.7972371,223.328048 14.0133373,209.961512 C16.0671118,197.577913 21.6195529,186.173402 26.9891368,175.143587 C27.9168962,173.23674 28.8260491,171.365181 29.7108211,169.509662 C32.3721945,170.5728 35.2029514,171.298454 38.1536882,171.628239 C32.6878637,189.666935 41.2834326,209.28077 59.3253373,218.549381 L61.7942296,219.817833 L64.4094075,218.886865 C78.6722647,213.807286 91.8148812,205.656349 103.472184,194.657973 C111.007182,187.549001 117.486099,179.684219 122.810771,171.280489 C124.407082,171.521091 126.039964,171.647487 127.70236,171.647487 C144.260876,171.647487 157.973237,159.268379 160.095022,143.280249 C166.872926,143.031948 174.072365,143.030023 180.889408,143.277682 C183.009909,159.267096 196.722911,171.647487 213.282069,171.647487 C220.205618,171.647487 226.628074,169.477582 231.918741,165.791567 C235.591924,173.310524 236.963032,181.770715 235.500174,190.198183 Z M41.7986406,119.295166 C52.7469714,119.295166 61.6530767,128.201913 61.6530767,139.149602 C61.6530767,143.081993 60.4994727,146.74876 58.5181995,149.8368 C55.2171469,154.983747 49.6088862,158.511928 43.1626907,158.952068 C42.7116431,158.982865 42.2573875,159.004038 41.7986406,159.004038 C39.3592622,159.004038 37.0218987,158.558765 34.8609764,157.750985 C30.4897283,156.114895 26.8473424,152.978735 24.5561744,148.973843 C22.8976281,146.074434 21.9442045,142.722053 21.9442045,139.149602 C21.9442045,128.201913 30.8509514,119.295166 41.7986406,119.295166 Z M107.847924,138.96097 C107.847924,129.014183 115.200706,120.754815 124.755473,119.326605 C125.717237,119.182244 126.701458,119.106534 127.70236,119.106534 C134.067072,119.106534 139.733718,122.122073 143.368405,126.794234 C144.271783,127.954895 145.055182,129.214364 145.685879,130.559166 C146.883753,133.11275 147.556796,135.958905 147.556796,138.96097 C147.556796,140.548299 147.364315,142.091356 147.010791,143.571537 C145.075713,151.671787 138.168846,157.862625 129.705448,158.714675 C129.047162,158.78076 128.378611,158.815407 127.70236,158.815407 C123.73853,158.815407 120.045458,157.643196 116.942019,155.633692 C111.475553,152.09268 107.847924,145.944188 107.847924,138.96097 Z M190.713007,115.351868 C186.459814,119.421562 183.296706,124.621121 181.721568,130.468058 C174.369428,130.192168 166.573297,130.192168 159.263503,130.468058 C157.584425,124.236158 154.101798,118.738254 149.417448,114.562053 L169.961608,73.0201183 L190.713007,115.351868 Z M102.215924,12.8325293 L237.652756,12.8325293 L205.664305,107.177833 C204.277798,107.510825 202.925297,107.929792 201.612575,108.433452 L170.012295,43.9702135 L138.322831,108.048489 C136.953007,107.57691 135.541478,107.197081 134.096585,106.909001 L102.215924,12.8325293 Z M233.136505,138.96097 C233.136505,140.951868 232.838801,142.873472 232.291513,144.687928 C230.987773,149.00464 228.251974,152.703487 224.639102,155.23269 C221.41825,157.487286 217.503182,158.815407 213.282069,158.815407 C204.114831,158.815407 196.381578,152.568108 194.108375,144.107918 C193.666951,142.465412 193.427633,140.74078 193.427633,138.96097 C193.427633,136.246985 193.976205,133.659396 194.966199,131.301502 C195.476275,130.086304 196.112746,128.937833 196.843533,127.858655 C200.416626,122.585311 206.44642,119.106534 213.282069,119.106534 C213.908916,119.106534 214.527423,119.139256 215.139513,119.196359 C225.219753,120.135667 233.136505,128.639487 233.136505,138.96097 Z M245.968585,138.96097 C245.968585,123.002995 234.471042,109.688429 219.327262,106.843557 L255.552866,0.000449122807 L84.3183799,0.000449122807 L120.599162,107.061061 C105.980856,110.313993 95.0158436,123.377051 95.0158436,138.96097 C95.0158436,150.662544 101.200265,160.941682 110.468235,166.717402 C106.01037,173.359286 100.723553,179.609151 94.6661694,185.324559 C85.0581494,194.388499 74.3549113,201.262003 62.8156632,205.78467 C51.1930065,198.483858 46.279603,184.715677 51.3822797,172.72089 L51.781999,171.78094 C52.0322246,171.193873 52.2824501,170.605522 52.5320341,170.017171 C65.2980291,165.564439 74.4851569,153.413742 74.4851569,139.149602 C74.4851569,121.125662 59.8219388,106.463086 41.7986406,106.463086 C23.7753424,106.463086 9.11212431,121.125662 9.11212431,139.149602 C9.11212431,148.246905 12.8513925,156.485101 18.8696381,162.41673 C17.7789113,164.741261 16.6304401,167.105572 15.4518135,169.526344 C9.94941754,180.828198 3.71302657,193.637823 1.35449023,207.862183 C-3.32986065,236.112008 4.22630977,258.694544 22.6307208,271.450274 C33.7991218,279.190584 45.1401143,282.233712 56.553608,282.233712 C78.0447759,282.233712 99.7842446,271.4368 121.047002,260.875356 C136.360164,253.269782 152.194951,245.404359 167.835974,241.547036 C173.655322,240.111767 179.644054,239.248168 185.984385,238.333883 C198.556616,236.520068 211.557438,234.645301 223.072946,227.975828 C236.421518,220.243858 245.559242,207.274474 248.142981,192.393752 C250.361007,179.618775 247.691934,166.823266 241.181578,155.972459 C244.216365,151.013502 245.968585,145.188379 245.968585,138.96097 Z"
                fill="#FFFFFF">

            </path>
        </g>
    </symbol>

</svg>